<?xml version="1.0" standalone="no"?>
<!DOCTYPE svg PUBLIC "-//W3C//DTD SVG 1.1//EN" "http://www.w3.org/Graphics/SVG/1.1/DTD/svg11.dtd" >
<!--
2013-9-30: Created.
-->
<svg>
<metadata>
Created by iconfont
</metadata>
<defs>

<font id="iconfont" horiz-adv-x="1024" >
  <font-face
    font-family="iconfont"
    font-weight="500"
    font-stretch="normal"
    units-per-em="1024"
    ascent="896"
    descent="-128"
  />
    <missing-glyph />
    
    <glyph glyph-name="tixing1" unicode="&#58941;" d="M660.48 23.552q6.144 0-3.584-15.36t-29.696-33.792-47.104-33.792-57.856-15.36q-27.648 0-53.248 15.36t-45.056 33.792-29.696 33.792-6.144 15.36l272.384 0zM914.432 110.592q7.168-9.216 6.656-17.92t-4.608-14.848-10.24-9.728-12.288-3.584l-747.52 0q-14.336 0-20.992 11.776t4.608 29.184q17.408 30.72 40.96 68.608t44.544 81.408 36.352 92.16 15.36 101.888q0 51.2 14.336 92.16t37.376 71.68 53.248 52.224 62.976 32.768q-16.384 26.624-16.384 55.296 0 41.984 28.672 70.656t70.656 28.672 70.656-28.672 28.672-70.656q0-14.336-4.096-28.16t-11.264-25.088q34.816-11.264 66.048-32.768t54.272-53.248 36.864-72.704 13.824-91.136q0-51.2 15.36-100.864t36.864-94.208 45.568-81.408 43.52-63.488zM478.208 753.664q0-16.384 11.264-28.16t27.648-11.776l2.048 0q16.384 1.024 27.648 12.288t11.264 27.648q0 17.408-11.264 28.672t-28.672 11.264-28.672-11.264-11.264-28.672z"  horiz-adv-x="1024" />

    
    <glyph glyph-name="gengduo1" unicode="&#58880;" d="M160.349 397.1911c-45.6909 0-82.7314-36.2065-82.7314-80.8712 0-44.6617 37.0404-80.8662 82.7314-80.8662 45.6889 0 82.7294 36.2045 82.7294 80.8662C243.0794 360.9847 206.039 397.1911 160.349 397.1911zM514.3399 397.1911c-45.6889 0-82.7294-36.2065-82.7294-80.8712 0-44.6617 37.0404-80.8662 82.7294-80.8662 45.6909 0 82.7314 36.2045 82.7314 80.8662C597.0713 360.9847 560.0308 397.1911 514.3399 397.1911zM868.3327 397.1911c-45.6909 0-82.7314-36.2065-82.7314-80.8712 0-44.6617 37.0404-80.8662 82.7314-80.8662 45.6889 0 82.7294 36.2045 82.7294 80.8662C951.0621 360.9847 914.0217 397.1911 868.3327 397.1911z"  horiz-adv-x="1000" />

    
    <glyph glyph-name="zhuye" unicode="&#58895;" d="M939.3746 442.7643 542.9647 839.1575c-7.9 7.9006-18.2784 11.804-28.6318 11.7231-10.3534 0.0809-20.7318-3.8224-28.6308-11.7231L89.2922 442.7643c-15.6391-15.6384-15.6391-40.9862 0-56.6246 7.804-7.8027 18.0265-11.7101 28.255-11.7241l0-0.134909 39.678764 0c21.9141 0 39.6788-17.771 39.6788-39.6831l0-277.735695c0-43.8293 35.5304-79.3532 79.3585-79.3532l119.033295 0c43.8291 0 79.3585 35.5249 79.3585 79.3532L474.655059 175.894232c0 21.9051 17.7637 39.6711 39.6768 39.6711 21.9141 0 39.6788-17.765 39.6788-39.6711l0-119.032296c0-43.8293 35.5304-79.3532 79.3565-79.3532l119.035294 0c43.8271 0 79.3565 35.5249 79.3565 79.3532L831.758953 334.597631c0 21.9111 17.7637 39.6831 39.6788 39.6831l39.678764 0 0 0.134909c10.2285 0.015 20.453 3.9223 28.257 11.7251C955.0136 401.7781 955.0136 427.1259 939.3746 442.7643zM752.4035 374.2807l0-277.74369c0-21.9151-17.7637-39.6751-39.6788-39.6751l-39.678764 0c-21.9121 0-39.6788 17.759-39.6788 39.6751L633.367136 215.565335c0 43.8293-35.5304 79.3572-79.3565 79.3572l-79.354531 0c-43.8291 0-79.3585-35.5289-79.3585-79.3572l0-119.028299c0-21.9151-17.7637-39.6751-39.6788-39.6751l-39.678764 0c-21.9121 0-39.6768 17.759-39.6768 39.6751L276.263241 374.280726c0 38.6658-27.6734 70.863-64.2951 77.9032L514.3339 754.5359l302.3647-302.352C780.0769 445.1437 752.4035 412.9465 752.4035 374.2807z"  horiz-adv-x="1000" />

    
    <glyph glyph-name="qingchu" unicode="&#58947;" d="M704.1088973999024 27.395075866699244c-21.02533950805664 0-56.16099783325196-8.578585052490233-105.40871850585938-25.72828088378906-49.24273809814453-17.154678405761715-83.54686349487305-25.72911145019531-102.91403649902345-25.72911145019531-22.131586395263675 0-57.8184169921875 8.574433044433594-107.06530709838866 25.72911145019531-49.24356866455078 17.14969583129883-82.7218910522461 25.72828088378906-100.42757528686525 25.72828088378906-10.512628143310547 0-21.992983978271486-1.6614055480957033-34.44189724731445-4.980147033691406s-22.411282928466793-6.49971029663086-29.87980114746094-9.543737823486328c-7.468517395019532-3.0431969604492184-17.568659729003908-7.330413482666015-30.292286956787112-12.86663131713867-7.193803436279297-3.318741485595703-12.449743835449219-5.669007934570312-15.769399108886718-7.054868957519532-3.318907104492187-1.3817914123535155-7.607120635986329-2.901272277832031-12.866299255371093-4.562761047363281-5.255940399169921-1.6614055480957033-8.851139373779297-2.350266448974609-10.78817266845703-2.074721923828125-1.937863037109375 0.27554452514648436-4.012668182373047 0.9684750366210938-6.224415435791015 2.074721923828125-2.2134075622558593 1.1062468872070315-3.4565965576171873 3.4565133361816405-3.736293090820312 7.054868957519532-0.27637509155273443 3.5942860107421875 0.1419246826171875 8.161946411132813 1.2481715698242188 13.693182495117188 1.106330108642578 5.531236083984375 2.763666046142578 12.449162933349609 4.977074432373048 20.748964416503906 5.5356369323730465 16.59860678100586 12.311141418457032 36.79158279418946 20.336477783203126 60.58366094970704 8.022845489501954 23.791330810546874 15.76773797607422 46.61493392944335 23.237085937499998 68.46931549072266 7.472670227050781 21.855211303710938 14.385946563720704 42.74518661499023 20.748964416503906 62.663365447998046 6.366340118408203 19.918178833007815 11.484507843017578 35.961626953125 15.355252166748047 48.13532858276367l6.641884643554688 17.42939236450195 622.4776748657226 0c20.474250457763674-115.63699960327146 35.136488891601566-202.7804743652344 43.98688092041016-261.43142047119136 1.106330108642578-7.743729858398439 1.66148876953125-14.248423553466797 1.66148876953125-19.504114288330076s-0.4174692077636719-9.543737823486328-1.2481715698242188-12.862479309082032c-0.8266335754394531-3.318741485595703-2.763666046142578-5.6731599426269534-5.806946228027343-7.054868957519532-3.043363403320312-1.3826219787597656-5.674156951904297-2.3510970153808595-7.886817169189454-2.9062548522949223-2.2125769958496098-0.5510890502929687-6.086642761230469 0-11.618958251953124 1.6614055480957033-5.531484924316407 1.6580832824707032-10.236253051757812 3.1817993774414064-14.110402038574218 4.563591613769531-3.8707434997558594 1.3859442443847656-9.957470306396484 3.4606661682128905-18.257520629882812 6.224165771484375-16.048265075683595 6.642465545654297-29.32455926513672 11.618459747314455-39.840509674072266 14.941354064941407-10.512628143310547 3.318741485595703-25.588266174316406 6.91385806274414-45.231731048583974 10.787757385253906C741.3194432678222 25.458126617431617 722.3697394714355 27.395075866699244 704.1088973999024 27.395075866699244L704.1088973999024 27.395075866699244zM807.8553797912598 338.62323046874997L600.3625155334473 338.62323046874997 444.33083142089845 338.62323046874997 288.29333828735355 338.62323046874997c-13.831535247802734 0-25.867962707519528 5.117918884277344-36.104215759277345 15.350518432617188-10.233014831542969 10.236668334960939-15.351099334716796 22.54814181518555-15.351099334716796 36.933424255371094 14.385946563720704 19.366342437744144 37.62461041259766 53.94543063354492 69.71615798950195 103.74133419799804 26.005735382080076 34.85953207397461 54.500339630126945 52.28394186401367 85.48555709838867 52.28394186401367l78.01625692749023 0 25.730190856933593 207.48432870483398 12.449743835449219 14.942183807373048c4.981226440429687 5.532065826416016 14.247343322753904 13.000251983642578 27.803334869384763 22.40538739013672 13.55599154663086 9.405965972900391 26.14342401123047 14.110650878906249 37.7623830871582 14.110650878906249 11.622280517578126 0 23.93416928100586-4.288047088623046 36.93500216674804-12.862479309082032 13.004902496337891-8.579415618896483 23.104296661376953-17.016075988769533 30.29311752319336-25.31579425048828l10.792324676513672-13.280779083251954-25.730190856933593-207.48432870483398 76.35474755859374 0c14.386777130126953 0 29.87980114746094-4.839052917480468 46.479902618408204-14.523884857177734 16.599354125976564-9.681510498046874 30.710503509521484-23.373861602783204 42.32863119506837-41.07879849243164 32.0932087097168-49.2448977355957 54.77920559692383-82.71856878662109 68.05965261840821-100.42259271240235 0-15.492442291259763-5.118167724609376-28.078547332763673-15.355252166748047-37.76005783081055C833.7224295349122 343.4615360412597 821.6869158630371 338.62323046874997 807.8553797912598 338.62323046874997L807.8553797912598 338.62323046874997zM807.8553797912598 338.62323046874997"  horiz-adv-x="1024" />

    
    <glyph glyph-name="gongzuo" unicode="&#58975;" d="M879.9405 198.5848 150.746974 198.5848c-40.2803 0-72.9196 33.2634-72.9196 74.2786L77.827374 718.339454c0 40.9552 32.6392 74.1687 72.9196 74.1687l729.194503 0c40.2763 0 72.9205-33.2135 72.9205-74.1687l0-445.475967C952.861 231.8483 920.2168 198.5848 879.9405 198.5848zM879.9405 644.0558c0 41.0152-32.6432 74.2836-72.9196 74.2836L223.666524 718.3394c-40.2803 0-72.9196-33.2684-72.9196-74.2836l0-296.964658c0-40.9552 32.6392-74.2277 72.9196-74.2277l583.355403 0c40.2763 0 72.9196 33.2724 72.9196 74.2277L879.941527 644.055818zM369.5056 124.3522l291.677202 0 0-74.223676 145.8391 0 0-74.283636L223.666524-24.155112l0 74.283636 145.8391 0L369.505625 124.352177z"  horiz-adv-x="1000" />

    
    <glyph glyph-name="shoucang" unicode="&#58953;" d="M895.846 378.315c88.278 91.944 88.222 240.9 0 332.835-45.108 46.959-104.532 69.93-163.643 68.915-82.678-1.462-219.038-115.387-219.038-115.387s-140.186 115.557-224.911 115.411c-57.72-0.103-115.407-23.085-159.449-68.939-88.227-91.935-88.278-240.891 0-332.835l383.521-399.298 383.521 399.298z"  horiz-adv-x="1024" />

    
    <glyph glyph-name="dingwei1" unicode="&#58977;" d="M183.458816 404.827904c0 189.41952 146.182144 342.864896 331.737088 342.864896 185.568256 0 340.33152-153.445376 340.33152-342.864896 0-189.43488-340.33152-553.214976-340.33152-553.214976S183.458816 215.394048 183.458816 404.827904M427.88864 478.869248c0 49.540096 40.958976 89.611264 91.604992 89.611264 50.658304 0 91.604992-40.071168 91.604992-89.611264 0-49.527808-40.946688-89.598976-91.604992-89.598976C468.847616 389.271296 427.88864 429.342464 427.88864 478.869248"  horiz-adv-x="1024" />

    
    <glyph glyph-name="xiazai" unicode="&#58928;" d="M123.713536 575.387648 382.262272 575.387648 382.262272 831.463424 575.788032 831.463424l0-256.074752L830.180352 575.388672 476.946432 194.479104 123.713536 575.387648zM829.90592 192.224256l0-62.464L124.913664 129.760256l0 62.464L58.868736 192.224256l0-190.454784 66.044928 0 704.992256 0 61.436928 0L891.342848 192.224256 829.90592 192.224256z"  horiz-adv-x="1024" />

    
    <glyph glyph-name="iconfontyuan" unicode="&#59047;" d="M512.024049-202.649028c-67.845934 0-133.678943 13.295817-195.673372 39.517015-59.860749 25.320689-113.614156 61.561078-159.769203 107.715257-46.153001 46.153156-82.392828 99.904361-107.712507 159.762657C22.647717 166.335744 9.353402 232.164009 9.353402 300.001023c0 67.848271 13.294316 133.681652 39.515565 195.673541 25.318656 59.858296 61.559507 113.610524 107.71353 159.761634 46.154024 46.150086 99.907431 82.386382 159.770226 107.702977 61.99136 26.217105 127.824368 39.509852 195.671325 39.509852 67.840817 0 133.668709-13.292748 195.654952-39.510876 59.856655-25.315572 113.606992-61.552891 159.754876-107.702977 46.14993-46.15111 82.385664-99.902314 107.702274-159.761634 26.217156-61.990866 39.509424-127.824247 39.509424-195.672518 0-67.835991-13.293292-133.664256-39.510448-195.654099-25.316609-59.857273-61.553367-113.609501-107.70125-159.762657-46.148907-46.155203-99.898221-82.395592-159.752829-107.71628C645.692758-189.353211 579.862819-202.649028 512.024049-202.649028zM512.024049 736.431907c-240.659756 0-436.450813-195.782012-436.450813-436.430884 0-240.649895 195.791057-436.431907 436.450813-436.431907 240.634172 0 436.402715 195.782012 436.402715 436.431907 0 116.585275-45.392653 226.185462-127.818228 308.612777C738.186031 691.039068 628.594657 736.431907 512.024049 736.431907z"  horiz-adv-x="1024" />

    
    <glyph glyph-name="xinzeng" unicode="&#58922;" d="M511.999488 832.207092c-247.531538 0-448.22648-200.665229-448.22648-448.208115 0-247.542886 200.694941-448.208115 448.22648-448.208115s448.22648 200.666252 448.22648 448.208115C960.225968 631.542886 759.575031 832.207092 511.999488 832.207092zM511.999488 38.323073c-190.934247 0-345.668577 154.771993-345.668577 345.675904s154.73433 345.675904 345.668577 345.675904c190.934247 0 345.712581-154.771993 345.712581-345.675904S702.933735 38.323073 511.999488 38.323073zM710.593496 439.04057 569.428762 439.04057 569.428762 580.199521c0 15.582907-12.649606 28.231995-28.233151 28.231995l-56.510307 0c-15.583545 0-28.233151-12.649088-28.233151-28.231995l0-141.15895L315.287418 439.04057c-15.583545 0-28.233151-12.627598-28.233151-28.231995l0-56.463989c0-15.626909 12.649606-28.231995 28.233151-28.231995l141.164734 0L456.452152 184.932152c0-15.604396 12.649606-28.231995 28.233151-28.231995l56.510307 0c15.583545 0 28.233151 12.627598 28.233151 28.231995L569.428762 326.113615l141.164734 0c15.583545 0 28.233151 12.627598 28.233151 28.231995l0 56.463989C738.826647 426.412972 726.177041 439.04057 710.593496 439.04057z"  horiz-adv-x="1024" />

    
    <glyph glyph-name="qishiyedanwei" unicode="&#59077;" d="M544.70749732 454.12604587c0-12.69303372 10.29833441-23.0264301 22.99188825-23.0264301l49.97580854 34.5396446c15.60441092 10.54296855 23.02737283 21.08593818 23.02737283 23.02643011l-0.379243 238.03846028c0 9.57161407-5.83169409 17.76714227-14.13512155 21.24450323L623.22411899 896.14678092l-71.02490873-8.8774721L339.12115959 678.6387242000001l203.07911978-3.12363777L544.70749732 454.12604587zM910.86446311 300.22065439000005l-84.96819011 214.14268994L480.8615936 301.19090035l-85.97285113 221.0441877L49.09003228 289.67879436l0-383.27373369c0 0 0-20.18111444 23.96217432-20.18111444L978.83657536-113.77605376999998l0 414.01223178L910.86446311 300.22065439000005zM393.15331711 19.875039219999962c0-12.68970707-10.29944293-23.02753862-23.02737283-23.02753862l-168.68554308 0c-12.69244533 0-23.02848244 10.33672195-23.02848244 23.02753862l0 171.38423169c0 12.69303372 10.33492859 23.0264301 23.02848244 23.0264301l168.68554308 0c12.7279299 0 23.02737283-10.33228678 23.02737283-23.0264301L393.15331711 19.875039219999962zM824.16084764 19.875039219999962c0-12.68970707-10.33271047-23.02753862-23.02626431-23.02753862L631.09729415-3.1524994000000106c-12.7268203 0-23.02959096 10.33672195-23.02959096 23.02753862l0 171.38423169c0 12.69303372 10.30276957 23.0264301 23.02959096 23.0264301l170.03839878 0c12.69244533 0 23.02626431-10.33228678 23.02626432-23.0264301L824.16195725 19.875039219999962z"  horiz-adv-x="1024" />

    
    <glyph glyph-name="shezhi" unicode="&#58887;" d="M511.994372 198.660828c-101.688057 0-184.408356 82.862219-184.408356 184.710862 0 101.847619 82.720299 184.701652 184.408356 184.701652s184.417566-82.85301 184.417566-184.701652C696.411938 281.522024 613.682428 198.660828 511.994372 198.660828zM511.994372 507.177414c-68.157032 0-123.61022-55.543014-123.61022-123.805724 0-68.272943 55.453188-123.815957 123.61022-123.815957 68.166242 0 123.620454 55.543014 123.620454 123.815957C635.614825 451.6344 580.160614 507.177414 511.994372 507.177414zM581.629118 769.954259l0-40.661072c0-29.854958 17.801141-56.518225 45.331252-67.944462 8.955319-3.720741 18.401846-5.598508 28.096023-5.598508 19.615537 0 38.055247 7.650237 51.915474 21.538549l26.02579 26.061562 98.469627-98.629321-26.016579-26.061562c-21.074831-21.109784-27.321348-52.570309-15.913063-80.145341 11.399075-27.584242 38.026593-45.402049 67.827514-45.402049l39.339549 0 0-139.490961-39.339549 0c-29.800921 0-56.429462-17.817808-67.827514-45.39284-11.408285-27.584242-5.161768-59.043744 15.913063-80.153528l26.016579-26.062586-98.469627-98.629321-26.02579 26.062586c-13.86125 13.887288-32.299937 21.538549-51.915474 21.538549-9.694177 0-19.140703-1.87879-28.096023-5.599532-27.530111-11.416004-45.331252-38.089503-45.331252-67.943438l0-39.393195L442.369858-1.952212l0 39.393195c0 29.854958-17.791931 56.527434-45.322042 67.943438-8.955319 3.720741-18.41208 5.599532-28.106256 5.599532-19.605303 0-38.054223-7.65126-51.91445-21.538549l-26.026813-26.062586-98.469627 98.629321 26.017603 26.062586c21.074831 21.109784 27.320325 52.569286 15.913063 80.144318-11.399075 27.584242-38.026593 45.402049-67.828537 45.402049l-39.331362 0L127.301437 453.112054l39.331362 0c29.801944 0 56.430486 17.817808 67.828537 45.402049 11.407262 27.575032 5.161768 59.034535-15.913063 80.145341l-26.017603 26.061562 98.469627 98.629321 26.026813-26.061562c13.86125-13.888312 32.309147-21.538549 51.91445-21.538549 9.694177 0 19.141727 1.877767 28.096023 5.598508 27.540345 11.426237 45.332275 38.089503 45.332275 67.944462l0 40.661072L581.629118 769.954259M581.629118 830.849164 442.369858 830.849164c-33.44097 0-60.798136-31.204699-60.798136-64.697511l0-36.858466c0-5.124717-3.082325-9.729595-7.796889-11.69025-1.558559-0.64673-3.20001-0.957815-4.833273-0.957815-3.282901 0-6.510541 1.277086-8.927689 3.702322l-26.026813 26.061562c-11.818648 11.845793-27.402193 17.763572-42.987785 17.763572s-31.159927-5.91778-42.987785-17.763572l-98.477814-98.629321c-23.637295-23.681352-23.637295-62.445214 0-86.11838l26.026813-26.061562c3.610372-3.619434 4.686934-9.063423 2.73541-13.788028-1.951525-4.722558-6.556591-7.80578-11.663099-7.80578l-36.804715 0c-33.430737 0-63.323759-27.40107-63.323759-60.894905l0-139.490961c0-33.492812 29.893022-60.894905 63.323759-60.894905l36.804715 0c5.106507 0 9.711574-3.082198 11.663099-7.80578s0.874963-10.168594-2.73541-13.788028l-26.026813-26.062586c-23.637295-23.681352-23.637295-62.436004 0-86.117356l98.477814-98.629321c11.827858-11.835559 27.402193-17.763572 42.987785-17.763572s31.169137 5.928013 42.987785 17.763572l26.026813 26.061562c2.416125 2.416026 5.644788 3.702322 8.927689 3.702322 1.633264 0 3.273691-0.310062 4.833273-0.957815 4.714565-1.960655 7.796889-6.574742 7.796889-11.69025l0-36.859489c0-33.484625 27.357165-63.429635 60.798136-63.429635l139.25926 0c33.439947 0 60.797112 29.946033 60.797112 63.429635l0 36.859489c0 5.115508 3.073114 9.729595 7.796889 11.69025 1.558559 0.647753 3.201033 0.957815 4.833273 0.957815 3.282901 0 6.510541-1.286296 8.927689-3.702322l26.017603-26.061562c11.827858-11.835559 27.412426-17.763572 42.996995-17.763572 15.576382 0 31.170161 5.928013 42.988808 17.763572l98.477814 98.629321c23.637295 23.682375 23.637295 62.437028 0 86.117356l-26.026813 26.062586c-3.611396 3.619434-4.686934 9.063423-2.736433 13.788028 1.951525 4.723581 6.556591 7.80578 11.663099 7.80578l36.805739 0c33.430737 0 63.323759 27.40107 63.323759 60.894905L957.494652 453.112054c0 33.492812-29.893022 60.894905-63.323759 60.894905l-36.805739 0c-5.106507 0-9.711574 3.083222-11.663099 7.80578-1.950502 4.723581-0.874963 10.168594 2.736433 13.788028l26.026813 26.061562c23.637295 23.672142 23.637295 62.437028 0 86.11838l-98.477814 98.629321c-11.818648 11.845793-27.412426 17.763572-42.988808 17.763572-15.584569 0-31.169137-5.91778-42.996995-17.763572l-26.017603-26.061562c-2.416125-2.426259-5.644788-3.702322-8.927689-3.702322-1.63224 0-3.273691 0.310062-4.833273 0.957815-4.723775 1.960655-7.796889 6.565533-7.796889 11.69025l0 36.858466C642.42623 799.645488 615.069065 830.849164 581.629118 830.849164L581.629118 830.849164z"  horiz-adv-x="1024" />

    
    <glyph glyph-name="shouji" unicode="&#59064;" d="M759.885105 756.224696l-38.021476 0L302.03813 756.224696l-68.423102 0 0-68.325132 0-836.276525 9.761718 0 58.660361 0 419.824476 0 56.243213 0 12.178866 0 0 904.602679L759.885105 756.225719zM510.741793-88.510478c-24.952297 0-45.179796 20.227694-45.179796 45.178969 0 24.949228 20.227499 45.177945 45.179796 45.177945s45.181843-20.227694 45.181843-45.177945C555.923637-68.283808 535.695114-88.510478 510.741793-88.510478zM302.03813 60.226055 302.03813 687.900587 721.862606 687.900587l0-627.674533L302.03813 60.226055z"  horiz-adv-x="1024" />

    
    <glyph glyph-name="fasong" unicode="&#58985;" d="M63 342.137l309.253-96.749L753.13 579.385 457.987 219.633l330.729-105.435 170.301 675.95L63 342.137zM447.551-19.411 556.427 134.29l-108.876 32.3L447.551-19.411z"  horiz-adv-x="1024" />

    
    <glyph glyph-name="dian1" unicode="&#58919;" d="M508.057713 585.850353c157.986197 0 286.047852-128.000256 286.047852-285.980313 0-157.986197-128.062678-286.047852-286.047852-286.047852-157.917636 0-285.980313 128.062678-285.980313 286.047852C222.078423 457.850098 350.140077 585.850353 508.057713 585.850353z"  horiz-adv-x="1024" />

    
    <glyph glyph-name="iconceju" unicode="&#59058;" d="M793.95253614 699.44312959L68.80118838 280.77698554999995l167.46645761-290.06053858 725.15134776 418.66704405L793.95253614 699.44312959zM266.91436778 105.09999403999996L162.24693242 286.38648164000006l36.26071524 20.93330742L303.175083 126.0288041 266.91436778 105.09999403999996zM333.82090567 240.41325204999998l-62.79992139 108.76955449 36.25621786 20.93780391 62.7999214-108.77405098L333.82090567 240.41325204999998zM442.59045928 303.21317344l-62.79992139 108.77405097 36.26071523 20.93330742 62.79992139-108.77405097L442.59045928 303.21317344zM551.36451114 366.01309482l-62.7999214 108.77405098 36.26071524 20.93330742L587.62522637 386.94640224 551.36451114 366.01309482zM660.13856211 428.81301709L597.33864072 537.58706807l36.25621787 20.92881006 62.79992139-108.7695545L660.13856211 428.81301709zM706.11179258 600.38698945l36.25621787 20.93330743 104.66653623-181.2864876-36.25621787-20.93780391L706.11179258 600.38698945z"  horiz-adv-x="1024" />

    
    <glyph glyph-name="jiudianlvyou" unicode="&#58987;" d="M923.478074 443.123698 816.1353 443.123698c0 19.759019-2.620687 76.033697-71.560826 71.561849L279.425525 514.685547l0 71.560826c0 19.759019-16.038278 35.779901-35.779901 35.779901L100.521926 622.026274c-19.741623 0-35.779901-16.020882-35.779901-35.779901l0-572.491723c0-19.761066 16.038278-35.781948 35.779901-35.781948l143.122675 0c19.741623 0 35.779901 16.020882 35.779901 35.781948l500.929874 0c0-19.761066 16.038278-35.781948 35.780925-35.781948l107.342774 0c19.741623 0 35.779901 16.020882 35.779901 35.781948L959.257975 407.342774C959.257975 427.102816 943.219697 443.123698 923.478074 443.123698zM422.5482 443.123698l322.026274 0 0-214.684524L422.5482 228.439174 422.5482 443.123698zM279.425525 443.123698l71.560826 0 0-214.684524-71.560826 0L279.425525 443.123698zM887.697149 49.536598l-71.918983 0L815.778166 85.316499l-607.915513 0 0-35.779901-71.559802 0 0 500.92885 71.559802 0 0-393.589147 608.272647 0L816.1353 371.562872l71.562872 0L887.698173 49.536598z"  horiz-adv-x="1024" />

    
    <glyph glyph-name="iconshanchu" unicode="&#59042;" d="M511.279 825.879c-243.915 0-441.646-197.731-441.646-441.646 0-243.914 197.731-441.646 441.646-441.646 243.915 0 441.646 197.734 441.646 441.646 0 243.915-197.731 441.646-441.646 441.646zM731.301 226.891l-61.948-61.948-157.108 157.108-157.108-157.106-61.949 61.948 157.109 157.108-157.109 157.106 61.949 61.949 157.108-157.109 157.108 157.109 61.948-61.949-157.106-157.108 157.106-157.108z"  horiz-adv-x="1024" />

    
    <glyph glyph-name="yonghu" unicode="&#58892;" d="M512 812.8c-247.04 0-448-200.96-448-448 0-246.976 200.96-448 448-448 246.976 0 448 201.024 448 448C960 611.84 758.976 812.8 512 812.8zM512 748.8c212.032 0 384-172.032 384-384 0-85.632-28.352-164.352-75.712-228.224-46.592 73.152-117.824 128.896-202.496 154.176 49.536 33.92 82.176 90.816 82.176 155.264 0 103.68-84.288 188.032-188.032 188.032-103.68 0-188.032-84.352-188.032-188.032 0-65.024 33.216-122.368 83.52-156.096-84.608-26.048-155.712-82.432-201.664-156.16C157.184 198.08 128 277.952 128 364.8 128 576.832 299.968 748.8 512 748.8zM388.032 446.016c0 68.352 55.616 124.032 124.032 124.032s124.032-55.616 124.032-124.032S580.352 321.984 512 321.984 388.032 377.6 388.032 446.016zM251.008 83.712c50.56 93.952 149.056 158.336 262.976 158.336 112.96 0 210.752-63.168 261.888-155.712C707.008 21.056 614.336-19.2 512-19.2 411.072-19.2 319.552 20.032 251.008 83.712z"  horiz-adv-x="1024" />

    
    <glyph glyph-name="yanjing" unicode="&#59536;" d="M511.61790748 384.40732573m-138.29842143 0a135.14862137 135.14862137 0 1 1 276.59684406 0 135.14862137 135.14862137 0 1 1-276.59684406 0ZM501.23050658 721.67043677c-326.72431431 0-503.51679821-336.98795621-503.51679822-336.98795619s229.49006995-337.53826589 517.56892719-337.5382659 510.23826988 340.47365286 510.23826988 340.47365286S827.95482088 721.67043677 501.23050658 721.67043677zM511.61790748 137.97419680999997c-136.10078627 0-246.43312893 110.3311403-246.43312891 246.43312892s110.3311403 246.43312893 246.43312891 246.43312893 246.43312893-110.3311403 246.43312894-246.43312893S647.71869375 137.97419680999997 511.61790748 137.97419680999997z"  horiz-adv-x="1024" />

    
    <glyph glyph-name="tongji" unicode="&#58894;" d="M187.82648984375004 427.36409882812495l127.95624580078125 0 0-314.20287070312503-127.95624580078125 0 0 314.20287070312503ZM443.76416386718745 596.5510901367187l127.95624580078125 0 0-483.39076113281243-127.95624580078125 0 0 483.39076113281243ZM699.702737890625 781.3757791992188l127.95624580078125 0 0-668.2145501953125-127.95624580078125 0 0 668.2145501953125ZM62.02158505859376 63.39886757812508l899.9568290039063 0 0-76.77374765625001-899.9568290039063 0 0 76.77374765625001Z"  horiz-adv-x="1024" />

    
    <glyph glyph-name="daoru" unicode="&#59041;" d="M138.553101 152.861872l223.376487 0 0-148.912541L138.553101 3.94933 138.553101 152.861872 138.553101 152.861872zM361.929588 227.325817l223.37137-148.919704L361.929588-70.507452 361.929588 227.325817zM360.736413 748.529433 213.009883 600.802904l0-299.020304 74.456782 0L287.466666 525.152946l148.919704 0L436.38637 674.072651l372.291075 0 0-744.581126L585.300958-70.508475l0-74.457806 223.376487 0 74.456782 0 0 74.457806L883.134227 748.529433 360.736413 748.529433zM360.736413 748.529433"  horiz-adv-x="1024" />

    
    <glyph glyph-name="tab" unicode="&#59539;" d="M960 896l64 0 0-512-64 0 0 512zM0 384l64 0 0-512-64 0 0 512zM320 192l704 0 0-128-704 0 0-160.01024-224.01024 224.01024 224.01024 224.01024 0-160.01024zM704 576l-704 0 0 128 704 0 0 160.01024 224.01024-224.01024-224.01024-224.01024z"  horiz-adv-x="1024" />

    
    <glyph glyph-name="caidan" unicode="&#59169;" d="M264.448 536.832l498.88 0c22.496 0 40.736 18.24 40.736 40.704s-18.24 40.704-40.736 40.704L264.448 618.24c-22.496 0-40.736-18.24-40.736-40.704S241.952 536.832 264.448 536.832L264.448 536.832zM264.416 156.86400000000003l214.112-0.032 0 0c22.464 0 40.704 18.208 40.704 40.704 0 22.464-18.24 40.704-40.704 40.704l-214.08 0 0 0c-22.496 0-40.736-18.208-40.736-40.672C223.712 175.072 241.92 156.86400000000003 264.416 156.86400000000003L264.416 156.86400000000003zM264.448 346.81600000000003l498.88 0c22.496 0 40.736 18.272 40.736 40.736 0 22.496-18.24 40.704-40.736 40.704L264.448 428.256c-22.496 0-40.736-18.208-40.736-40.704C223.712 365.08799999999997 241.952 346.81600000000003 264.448 346.81600000000003L264.448 346.81600000000003zM767.072 817.792L260.672 817.792c-107.328 0-194.688-87.328-194.688-194.656l0-479.232c0-107.328 87.36-194.752 194.688-194.752l215.84 0c22.496 0 40.704 18.24 40.704 40.704 0 22.496-18.24 40.704-40.704 40.704L260.672 30.559999999999945c-62.432 0-113.28 50.848-113.28 113.312L147.392 623.136c0 62.432 50.816 113.248 113.28 113.248l506.368 0c62.464 0 113.28-50.848 113.28-113.248l0-340.416-79.616 0c-97.28 0-176.448-79.168-176.448-176.448l0-111.776c0-9.792 3.456-18.72 9.184-25.76 7.136-11.712 20.064-19.584 34.784-19.584l44.512 0c20.544 0 44.032 10.88 76.096 35.232 22.56 17.088 48.096 39.904 73.888 66.08 24.96 25.248 47.936 51.52 64.672 73.92 24.064 32.16 34.336 54.24 34.336 73.856L961.728 623.136C961.76 730.432 874.4 817.792 767.072 817.792L767.072 817.792zM804.256 107.10400000000004c-50.08-50.656-83.904-72.768-94.048-76.512l-4.512 0L705.696 106.24000000000001c0 52.416 42.624 95.04 95.008 95.04l79.52 0C875.072 188.67200000000003 848.832 152.192 804.256 107.10400000000004L804.256 107.10400000000004zM804.256 107.10400000000004"  horiz-adv-x="1024" />

    
    <glyph glyph-name="shipin" unicode="&#58956;" d="M943.649486 554.386758c-20.810978 13.469779-176.684048-61.945841-176.684048-61.945841l0 7.890714c0 65.823148-53.688783 119.159914-119.918183 119.159914L185.011202 619.491545c-66.231447 0-119.92023-53.336766-119.92023-119.159914l0-400.659169c0-65.810868 53.688783-119.162983 119.92023-119.162983l462.037075 0c66.2294 0 119.918183 53.353139 119.918183 119.162983l0 9.784854c0 0 156.801209-74.7781 176.684048-61.946864C963.527209 60.334525 964.455347 540.930281 943.649486 554.386758zM319.662949 108.493362 319.662949 492.495152 623.790574 300.511653 319.662949 108.493362z"  horiz-adv-x="1024" />

    
    <glyph glyph-name="msnui-eth" unicode="&#59161;" d="M754.52529778 666.93461333v161.67708445h-485.04832v-161.67594667h-269.47356445v-727.54403556h1023.99317334v727.54289778h-269.47242667zM970.10232889-6.7174400000000105h-188.63104v53.89198222h-53.89425778v-53.89198222h-107.78851556v53.89198222h-53.89425777v-53.89198222h-107.78851556v53.89198222h-53.89539555v-53.89198222h-107.78851556v53.89198222h-53.89425778v-53.89198222h-188.63104v619.75893333h269.47015112v161.67594667h377.25980444v-161.67594667h269.47242666l0.00227556-619.75893333z"  horiz-adv-x="1024" />

    
    <glyph glyph-name="weixian" unicode="&#58991;" d="M1233.73494-153.538236c0-31.832829-25.602467-57.594448-57.303287-57.857234L1176.431653-212 58.35813-212l0 0.603296c-0.188761 0-0.339277-0.076492-0.526805-0.076492C25.883759-211.470728 0-185.522814 0-153.538236c0 11.694573 3.519846 22.515663 9.468916 31.605822L9.129639-121.706641 568.185523 785.900337l0.301031-0.207267C578.840058 801.514487 596.61201 812 616.86747 812c21.048752 0 39.306795-11.389841 49.397513-28.248829l0.33681 0.207267 559.038612-907.625484-0.339277-0.186294C1230.534631-132.568443 1233.73494-142.639422 1233.73494-153.538236zM693.975904 483.716704c0 42.657619-34.524839 77.242911-77.108434 77.242911s-77.108434-34.585292-77.108434-77.242911l0-289.661224c0-42.657619 34.524839-77.242911 77.108434-77.242911s77.108434 34.585292 77.108434 77.242911L693.975904 483.716704zM616.86747 58.880077c-42.583595 0-77.108434-34.584058-77.108434-77.241677 0-42.656386 34.524839-77.242911 77.108434-77.242911s77.108434 34.586525 77.108434 77.242911S659.451065 58.880077 616.86747 58.880077z"  horiz-adv-x="1234" />

    
    <glyph glyph-name="fenxiang" unicode="&#59073;" d="M738.048 229.952c-31.04 0-59.968-9.728-83.648-26.24L426.816 363.328C427.264 367.808 427.52 372.288 427.52 376.896c0 0.768-0.128 1.472-0.128 2.24l236.672 167.36c21.888-12.224 47.104-19.264 73.984-19.264 84.16 0 152.384 68.224 152.384 152.384C890.432 763.776 822.272 832 738.048 832c-84.096 0-152.32-68.224-152.32-152.384 0-12.032 1.472-23.744 4.096-35.008L372.864 491.136C347.648 511.616 315.52 523.904 280.512 523.904c-81.152 0-146.944-65.792-146.944-147.008 0-81.152 65.792-146.944 146.944-146.944 34.752 0 66.496 12.096 91.648 32.192l221.12-155.072c-1.344-7.872-2.112-15.872-2.112-24.064 0-81.216 65.792-147.008 146.944-147.008 81.216 0 147.008 65.792 147.008 147.008S819.264 229.952 738.048 229.952z"  horiz-adv-x="1024" />

    
    <glyph glyph-name="zitidaxiao" unicode="&#59122;" d="M619.7347 494.743356l-22.195511 162.118308L87.059821 656.861664 63.900356 494.743356l35.704177 0c21.22951 115.798353 27.985378 120.623241 84.919065 120.623241l117.729332 0L302.252929 48.917498c0-70.444399-4.824889-75.269287-90.709955-75.269287l0-30.879288 261.512039 0 0 30.879288c-86.84902 0-90.708931 4.824889-90.708931 75.269287L382.346081 615.366597l117.728308 0c55.003731 0 62.724577-3.859911 83.954087-120.623241L619.7347 494.743356zM943.272397 462.240081 571.920718 462.240081l-16.847713-117.935016 25.974581 0c15.443737 84.238566 20.357654 87.74953 61.774949 87.74953l85.641519 0 0-412.066987c0-51.245128-3.50994-54.755068-65.986877-54.755068l0-22.462594L852.714915-57.230054 852.714915-34.768483c-63.177901 0-65.986877 3.50994-65.986877 54.755068L786.728038 432.054595l85.643566 0c40.013319 0 45.6282-2.807952 61.073984-87.74953l25.973558 0L943.272397 462.240081z"  horiz-adv-x="1024" />

    
    <glyph glyph-name="jiayouzhan" unicode="&#58994;" d="M956.019211 544.868987c0-0.86674-0.031722-1.726318-0.081864-2.580778l-0.291642 0.198521 0.200568 0.194428L809.524742 693.894092l-0.306992-0.296759c-1.098008 1.465374-2.288113 2.883677-3.594875 4.234441-16.838503 17.385972-44.589544 17.84032-61.974493 1.000793-17.385972-16.839527-17.822924-44.572148-1.019213-61.97654 1.300622-1.343601 2.673899-2.573615 4.096295-3.714602l-0.231267-0.223081 121.870652-125.945457 0-464.661855c0-24.221658-19.640316-43.826158-43.86402-43.826158-24.186865 0-43.827181 19.6045-43.827181 43.826158L780.673647 266.06512l-0.084934 0c0.052189 0.867764 0.084934 1.738597 0.084934 2.619664 0 0.904603-0.035816 1.798972-0.090051 2.690272 0.054235 0.8913 0.090051 1.787716 0.090051 2.693342 0 24.186865-19.639293 43.827181-43.826158 43.827181-0.892323 0-1.77646-0.034792-2.656503-0.086981l0 0.068562-73.214489 0L660.976498 423.80777c0 176.073134-121.879861 318.829466-297.952996 318.829466-176.091554 0-297.952996-142.756331-297.952996-318.829466l0-570.736752 595.905992 0L660.976498 230.204377l32.042787 0 0-198.842721 0.456395 0c5.565762-67.508533 62.113663-120.567983 131.025149-120.567983 68.946278 0 125.496226 53.060473 131.060965 120.567983l0.457418 0L956.019211 542.231927l-0.00307 0.002047C956.017164 543.107877 956.019211 543.977687 956.019211 544.868987zM511.999488 374.488505 214.047516 374.488505 214.047516 494.330964c0 65.176418 60.939931 118.006647 148.975986 118.006647s148.975986-52.829206 148.975986-118.006647L511.999488 374.488505z"  horiz-adv-x="1024" />

    
    <glyph glyph-name="ren1" unicode="&#58966;" d="M584.413 386.525c76.142 43.216 130.125 146.583 130.125 232.077 0 111.221-91.302 201.349-203.92 201.349-112.618 0-203.913-90.128-203.913-201.349 0-84.62 52.882-186.748 127.793-230.731-330.086-30.679-332.659-263.515-332.659-367.28l790.816 0c0.001 117.726-51.937 331.601-308.241 365.934zM357.684 618.603c0 83.401 68.47 151.011 152.934 151.011 84.463 0 152.932-67.611 152.932-151.011 0-83.399-68.469-202.281-152.932-202.281-84.465 0-152.934 118.882-152.934 202.281zM512.687 60.146c-84.465 0-365.056-2.635-365.056 0 0 251.107 236.597 288.739 365.056 288.739 259.397 0 334.632-193.642 334.632-288.739 0-0.38-250.169 0-334.632 0z"  horiz-adv-x="1024" />

    
    <glyph glyph-name="speedup" unicode="&#58973;" d="M477.531 30.577v514.846l482.064-257.423zM545.514 288l-482.064-257.423v514.846z"  horiz-adv-x="1024" />

    
    <glyph glyph-name="slowdown" unicode="&#58974;" d="M545.514 30.577v514.846l-482.064-257.423zM477.531 288l482.064-257.423v514.846z"  horiz-adv-x="1024" />

    
    <glyph glyph-name="people" unicode="&#58968;" d="M958.923866 65.595206c-0.00307 136.025023-78.109985 252.291027-188.562587 299.707966 53.494355 38.552038 88.750323 104.232946 88.750323 178.821735 0 101.833293-65.685002 187.05935-153.849994 209.222115-0.817622 0.213871-1.585101 0.100284-2.331092-0.210801-1.003863 0.100284-1.974981 0.332575-2.996241 0.332575-18.834974 0-34.105772-16.474206-34.105772-36.787858 0-18.348903 12.493545-33.428344 28.782533-36.202527 2.899026-1.27504 6.701632-2.246157 6.852058-2.303462 51.055816-18.688641 87.800695-70.751391 87.800695-132.136459 0-68.447928-45.711088-125.32738-106.000196-137.232524-0.085958-0.007163-0.157589-0.174985-0.242524-0.221034-20.055778-1.367137-35.984562-19.166525-35.984562-41.136909 0-22.301935 16.396435-40.365336 36.880979-41.247426 0.143263-0.074701 0.268106-0.314155 0.414439-0.325411C805.581432 312.554808 891.528919 201.162812 891.528919 65.588043c0-20.067035 15.089673-36.337603 33.69952-36.337603 18.156522 0 32.853245 15.524578 33.56035 34.920324 0.024559 0.189312 0.1361 0.338714 0.1361 0.528026 0 0.067538-0.021489 0.1361-0.021489 0.217964l0 0c0.010233 0.225127 0.021489 0.443092 0.021489 0.664126l0 0.007163 0 0L958.924889 65.595206 958.923866 65.595206zM555.11189 359.271806c63.881936 46.160319 105.960287 124.648928 105.960287 213.806527 0 142.066623-106.789165 257.242805-238.529605 257.242805-131.733277 0-238.529605-115.176183-238.529605-257.242805 0-89.164762 42.086537-167.646208 105.957217-213.806527C157.919682 302.439426 64.555272 163.357787 64.555272 0.670521c0-9.16166 0.481977-18.178011 1.131777-27.15036l0.060375 0c0-19.803022 14.881942-35.8413 33.246195-35.8413 18.352997 0 33.239032 16.039301 33.239032 35.8413 0 1.11438-0.210801 2.167363-0.306992 3.260254-0.639566 7.894807-1.189082 15.799848-1.189082 23.89113 0 173.802418 130.640386 314.687122 291.802926 314.687122 161.16561 0 291.810089-140.884704 291.810089-314.687122 0-8.387018-0.549515-16.635889-1.235131-24.815175-0.00307-0.428765-0.11461-0.814552-0.11461-1.242294 0-0.1361 0.038886-0.25685 0.038886-0.381693-0.021489-0.23536-0.014326-0.481977-0.038886-0.710175l0.110517 0c0.549515-19.273972 15.128559-34.756595 33.131585-34.756595 18.010189 0 32.589233 15.474436 33.138748 34.756595l0.071631 0c0.62524 8.973372 1.071402 17.998933 1.071402 27.136034C780.529873 163.357787 687.169555 302.439426 555.11189 359.271806L555.11189 359.271806zM422.542572 388.296863c-94.628194 0-171.338297 82.730213-171.338297 184.78147 0 102.047164 76.710103 184.7784 171.338297 184.7784s171.338297-82.730213 171.338297-184.7784C593.880869 471.028099 517.170766 388.296863 422.542572 388.296863L422.542572 388.296863zM422.542572 388.296863"  horiz-adv-x="1024" />

    
    <glyph glyph-name="shandian" unicode="&#59001;" d="M540.861328 745.955818l281.392832-90.028433-233.277998-222.671429 165.945473-103.134939L211.354686-147.164343l146.727783 388.044874-156.337651 97.405447L540.861328 745.955818"  horiz-adv-x="1024" />

    
    <glyph glyph-name="gonglupingjiaodaokou" unicode="&#59033;" d="M438.270277 602.311257c0 9.857509-7.992021 17.84953-17.848507 17.84953l-17.84953 0c-9.857509 0-17.848507-7.993045-17.848507-17.84953l0-107.099227 53.549613 0 0 107.099227L438.270277 602.311257zM670.319284 602.311257c0 9.857509-7.994068 17.84953-17.84953 17.84953l-17.848507 0c-9.859555 0-17.84953-7.992021-17.84953-17.84953l0-107.099227 53.549613 0L670.319284 602.311257 670.319284 602.311257zM616.76967 31.11504c0-9.858532 7.992021-17.84953 17.848507-17.84953l17.84953 0c9.857509 0 17.84953 7.993045 17.84953 17.84953L670.317237 138.214267l-53.549613 0L616.76967 31.11504 616.76967 31.11504zM830.9671 414.88761l0 17.84953c0 9.857509-7.994068 17.84953-17.84953 17.84953l0 8.925277c0 9.857509-7.994068 17.84953-17.84953 17.84953s-17.848507-7.993045-17.848507-17.84953l0-8.925277-53.549613 0 0 8.925277c0 9.857509-7.993045 17.84953-17.848507 17.84953-9.858532 0-17.84953-7.993045-17.84953-17.84953l0-8.925277-53.549613 0 0 8.925277c0 9.857509-7.993045 17.84953-17.848507 17.84953s-17.84953-7.993045-17.84953-17.84953l0-8.925277-53.549613 0 0 8.925277c0 9.857509-7.993045 17.84953-17.848507 17.84953-9.857509 0-17.84953-7.993045-17.84953-17.84953l0-8.925277-53.549613 0 0 8.925277c0 9.857509-7.992021 17.84953-17.84953 17.84953-9.857509 0-17.848507-7.993045-17.848507-17.84953l0-8.925277-53.549613 0 0 8.925277c0 9.857509-7.994068 17.84953-17.84953 17.84953-9.857509 0-17.848507-7.993045-17.848507-17.84953l0-8.925277-53.549613 0 0 8.925277c0 9.857509-7.992021 17.84953-17.84953 17.84953-9.857509 0-17.84953-7.993045-17.84953-17.84953l0-8.925277c-9.857509 0-17.84953-7.993045-17.84953-17.84953l0-17.84953c0-9.857509 7.993045-17.84953 17.84953-17.84953l0-160.64884c-9.857509 0-17.84953-7.993045-17.84953-17.84953l0-17.848507c0-9.857509 7.993045-17.84953 17.84953-17.84953l0-8.925277c0-9.857509 7.993045-17.84953 17.84953-17.84953 9.857509 0 17.84953 7.994068 17.84953 17.84953l0 8.925277 53.549613 0 0-8.925277c0-9.857509 7.992021-17.84953 17.848507-17.84953 9.858532 0 17.84953 7.994068 17.84953 17.84953l0 8.925277 53.549613 0 0-8.925277c0-9.857509 7.993045-17.84953 17.848507-17.84953 9.858532 0 17.84953 7.994068 17.84953 17.84953l0 8.925277 53.549613 0 0-8.925277c0-9.857509 7.994068-17.84953 17.84953-17.84953s17.848507 7.994068 17.848507 17.84953l0 8.925277 53.549613 0 0-8.925277c0-9.857509 7.994068-17.84953 17.84953-17.84953s17.848507 7.994068 17.848507 17.84953l0 8.925277 53.549613 0 0-8.925277c0-9.857509 7.993045-17.84953 17.84953-17.84953s17.848507 7.994068 17.848507 17.84953l0 8.925277 53.549613 0 0-8.925277c0-9.857509 7.993045-17.84953 17.848507-17.84953s17.84953 7.994068 17.84953 17.84953l0 8.925277c9.857509 0 17.84953 7.994068 17.84953 17.84953l0 17.848507c0 9.858532-7.994068 17.84953-17.84953 17.84953l0 160.64884C822.974056 397.03808 830.9671 405.030102 830.9671 414.88761zM331.17105 236.38924l-53.550637 0 0 160.64884 53.550637 0L331.17105 236.38924 331.17105 236.38924zM420.420747 236.38924l-53.549613 0 0 160.64884 53.549613 0L420.420747 236.38924zM509.670443 236.38924l-53.549613 0 0 160.64884 53.549613 0L509.670443 236.38924zM598.919117 236.38924l-53.549613 0 0 160.64884 53.549613 0L598.919117 236.38924zM688.168814 236.38924l-53.549613 0 0 160.64884 53.549613 0L688.168814 236.38924zM777.417487 236.38924l-53.549613 0 0 160.64884 53.549613 0L777.417487 236.38924zM384.720663 31.11504c0-9.858532 7.993045-17.84953 17.84953-17.84953l17.84953 0c9.857509 0 17.848507 7.993045 17.848507 17.84953L438.26823 138.214267l-53.549613 0L384.720663 31.11504 384.720663 31.11504z"  horiz-adv-x="1024" />

    
    <glyph glyph-name="jiaotongiconboat" unicode="&#59002;" d="M209.067-42.619v0c59.733 0 115.2 38.4 149.333 89.6 38.4-51.2 89.6-89.6 149.333-89.6s110.933 38.4 149.333 89.6c38.4-51.2 89.6-89.6 149.333-89.6v0l89.6 290.133c4.267 12.8 0 25.6 0 34.133-4.267 12.8-12.8 17.067-21.333 21.333l-68.267 29.867v204.8c0 51.2-34.133 89.6-76.8 89.6h-110.933l-25.6 110.933-166.4 0-29.867-110.933h-110.933c-42.667 0-76.8-42.667-76.8-89.6v-204.8l-68.267-25.6c-8.533-4.267-17.067-12.8-21.333-21.333-4.267-12.8-4.267-21.333 0-34.133l89.6-294.4zM285.867 537.647h443.733v-174.933l-221.867 85.333-221.867-85.333 0 174.933zM661.333-42.619c-98.133-76.8-204.8-72.533-302.933 4.267 0 0-162.133-123.733-256-123.733h42.667c55.467 0 153.6 25.6 204.8 55.467 102.4-59.733 221.867-59.733 324.267 0 51.2-29.867 149.333-55.467 204.8-55.467h42.667c-93.867-4.267-260.267 119.467-260.267 119.467v0z"  horiz-adv-x="1024" />

    
    <glyph glyph-name="iconhutonglijiao1" unicode="&#59057;" d="M793.31813 106.553173c-0.007163-1.779529 0.005117-2.813069 0.051165-2.7793-1.2689-0.046049-2.50403-0.140193-3.767813-0.194428l-4.178159-3.341095 0 3.127224c-181.174316-10.724249-234.148831-75.815733-250.093988-88.522126l0-25.758664-92.62763 0L442.701704 554.111488l46.313815 55.574736 46.313815-55.574736 0-109.965507c14.505365 5.133927 30.048363 8.073886 46.313815 8.073886 76.734662 0 138.940422-62.20576 138.940422-138.939399 0-70.437236-52.461839-128.488373-120.41551-137.564076l0-1.37737-37.050848 0L563.117215 257.702662l9.262968 0 0 0.821715c3.01159-0.521886 6.099928-0.821715 9.262968-0.821715 30.694069 0 55.576783 24.882714 55.576783 55.576783 0 30.692023-24.882714 55.576783-55.576783 55.576783-19.34151 0-36.360116-9.891278-46.313815-24.879644l0-222.360344c57.45455 20.176528 57.010435 47.842635 250.093988 52.427046l0 0.294712 0.352017-0.280386c2.550079 0.057305 5.03262 0.24764 7.594979 0.280386 0.2415-0.197498 0.38067-2.743484 0.451278-6.718005l37.915541-30.332842L793.31813 106.553173zM192.608739 216.021354l55.576783 41.681308L414.913824 257.702662l0-83.364663L248.184499 174.337999 192.608739 216.021354z"  horiz-adv-x="1024" />

    
    <glyph glyph-name="gongzuoliuchengtu" unicode="&#58927;" d="M983.964-57.145 846.307-57.145c-21.721 0-39.33 17.575-39.33 39.249L806.977 99.859c0 21.677 17.609 39.249 39.33 39.249l39.33 0L885.637 315.737c0 21.679-17.607 39.251-39.33 39.251L531.664 354.988l0-215.88 39.332 0c21.721 0 39.33-17.572 39.33-39.249l0-117.756c0-21.674-17.609-39.249-39.33-39.249L433.34-57.146c-21.723 0-39.33 17.575-39.33 39.249L394.01 99.859c0 21.677 17.607 39.249 39.33 39.249l39.33 0 0 215.88L177.693 354.988c-21.721 0-39.33-17.572-39.33-39.251l0-176.629 39.33 0c21.721 0 39.33-17.572 39.33-39.249l0-117.756c0-21.674-17.609-39.249-39.33-39.249L40.036-57.146c-21.721 0-39.33 17.575-39.33 39.249L0.706 99.859c0 21.677 17.609 39.249 39.33 39.249l39.33 0L79.366 335.364c0 43.355 35.219 78.502 78.663 78.502L472.67 413.866 472.67 629.743l-39.33 0c-21.723 0-39.33 17.575-39.33 39.253L394.01 786.748c0 21.679 17.607 39.251 39.33 39.251l137.657 0c21.721 0 39.33-17.572 39.33-39.251l0-117.751c0-21.679-17.609-39.253-39.33-39.253l-39.332 0 0-215.878 334.309 0c43.441 0 78.66-35.147 78.66-78.502l0-196.255 39.33 0c21.721 0 39.33-17.572 39.33-39.249l0-117.756C1023.294-39.571 1005.684-57.145 983.964-57.145z"  horiz-adv-x="1024" />

    
    <glyph glyph-name="tixing" unicode="&#58881;" d="M512-65.04296320000003C264.0069216-65.04296320000003 62.9570368 135.98264853 62.9570368 384 62.9570368 631.9930784000001 264.0069216 833.0429632 512 833.0429632S961.0429632 631.9930784000001 961.0429632 384C961.0429632 135.98264853 759.9930784-65.04296320000003 512-65.04296320000003zM512 760.2009130700001C304.20233493 760.2009130700001 135.77481493 591.79766507 135.77481493 384s168.42752-376.24945813 376.22518507-376.24945813S888.22518507 176.20233493 888.22518507 384 719.79766507 760.2009130700001 512 760.2009130700001zM512 493.22666667c-33.52045013 0-60.6814816 27.18530347-60.6814816 60.7057536S478.47954987 614.58962987 512 614.58962987s60.6814816-27.1367584 60.6814816-60.65720854S545.52045013 493.22666667 512 493.22666667zM512 444.6814816c20.09770667 0 36.40888853-16.31118187 36.40888853-36.40888853l0-218.4776064C548.40888853 169.69727999999998 532.09770667 153.41037013000005 512 153.41037013000005S475.59111147 169.69727999999998 475.59111147 189.79498666999996L475.59111147 408.27259307C475.59111147 428.37029973 491.90229333 444.6814816 512 444.6814816z"  horiz-adv-x="1024" />

    
    <glyph glyph-name="xuankuang" unicode="&#59067;" d="M191.890001 662.666667 191.890001 662.666667C168.3261 662.666667 149.333333 643.695908 149.333333 620.109999L149.333333-20.109999C149.333333-43.673899 168.304092-62.666667 191.890001-62.666667L832.109999-62.666667C855.673899-62.666667 874.666667-43.695908 874.666667-20.109999L874.666667 620.109999C874.666667 643.6739 855.695908 662.666667 832.109999 662.666667L191.890001 662.666667ZM191.890001 705.333333 191.890001 705.333333 832.109999 705.333333C879.320516 705.333333 917.333333 667.177547 917.333333 620.109999L917.333333-20.109999C917.333333-67.320516 879.177547-105.333333 832.109999-105.333333L191.890001-105.333333C144.679484-105.333333 106.666667-67.177547 106.666667-20.109999L106.666667 620.109999C106.666667 667.320516 144.822453 705.333333 191.890001 705.333333L191.890001 705.333333Z"  horiz-adv-x="1024" />

    
    <glyph glyph-name="fabu" unicode="&#59005;" d="M716.032 354.432 716.032 354.432M838.08-64 198.144-64c-56.704 0-118.976 62.208-118.976 118.912l0 548.48c0 57.344 61.312 88.32 118.976 88.32l350.528 0c23.424 0 42.624-19.136 42.624-42.688 0-23.68-19.2-42.944-42.624-42.944L198.144 606.08c-23.68 0-32.704-3.776-34.24-5.184l0.896-545.984c0.64-7.616 19.84-33.344 33.344-33.344l636.16 0c2.304 3.84 6.464 14.272 6.464 33.344L840.768 389.952c0 23.744 19.328 43.008 43.072 43.008 23.424 0 42.624-19.264 42.624-43.008l0-335.04C926.464-19.52 881.472-64 838.08-64zM455.104 154.176c-19.136 0-35.648 12.416-41.152 30.976C413.44 186.88 361.408 367.168 469.312 496.064c70.656 84.352 190.208 124.672 355.968 120.128l-139.52 139.584c-16.768 16.96-16.768 43.52-0.128 60.48 16.256 16.448 44.544 16.448 60.736 0L992 571.008l-247.424-217.984c-17.792-15.552-45.824-13.376-60.544 3.712-15.616 17.792-13.952 44.992 3.776 60.48l128.832 113.408c-134.336 2.944-229.376-27.136-281.6-89.472-73.92-88.512-42.432-217.728-38.656-232.128 6.656-22.4-6.464-46.208-29.184-52.992C463.232 154.816 459.136 154.176 455.104 154.176z"  horiz-adv-x="1024" />

    
    <glyph glyph-name="refresh" unicode="&#59069;" d="M866.133333 257.333333M469.333333-84c-213.333333 0-384 170.666667-384 384 0 102.4 38.4 200.533333 110.933333 273.066667C268.8 645.6 366.933333 684 469.333333 684c213.333333 0 384-170.666667 384-384 0-25.6-17.066667-42.666667-42.666667-42.666667s-42.666667 17.066667-42.666667 42.666667c0 166.4-132.266667 298.666667-298.666667 298.666667C388.266667 598.666667 315.733333 568.8 256 513.333333c-55.466667-55.466667-85.333333-132.266667-85.333333-213.333333 0-166.4 132.266667-298.666667 298.666667-298.666667 81.066667 0 153.6 29.866667 213.333333 85.333333 17.066667 17.066667 42.666667 17.066667 59.733333 0 17.066667-17.066667 17.066667-42.666667 0-59.733333C669.866667-45.6 571.733333-84 469.333333-84zM810.666667 257.333333c-8.533333 0-17.066667 4.266667-25.6 8.533333L640 372.533333c-17.066667 12.8-21.333333 42.666667-8.533333 59.733333 12.8 17.066667 38.4 21.333333 59.733333 8.533333l145.066667-106.666667c17.066667-12.8 21.333333-42.666667 8.533333-59.733333C836.266667 261.6 823.466667 257.333333 810.666667 257.333333zM810.666667 257.333333c-8.533333 0-17.066667 4.266667-25.6 8.533333-17.066667 12.8-21.333333 42.666667-8.533333 59.733333L883.2 470.666667c12.8 17.066667 42.666667 21.333333 59.733333 8.533333 17.066667-12.8 21.333333-42.666667 8.533333-59.733333l-106.666667-145.066667C836.266667 261.6 823.466667 257.333333 810.666667 257.333333z"  horiz-adv-x="1024" />

    
    <glyph glyph-name="baocun1" unicode="&#59008;" d="M804.05504739 805.875L219.94494931 805.875c-71.68786414 0-129.80224374-58.11437961-129.80224374-129.80224374l0-584.11009809c0-71.68786414 58.11437961-129.80224374 129.80224374-129.80224374l584.11009808 0c71.68786414 0 129.80224374 58.11437961 129.80224375 129.80224374L933.85729197 676.07275626C933.85729197 747.76062039 875.74291153 805.875 804.05504739 805.875zM284.84607159 740.97387772l454.30785434 0 0-324.5056106c0-35.84351018-29.05761127-64.90112228-64.90112228-64.90112229l-324.50561059 0c-35.84351018 0-64.90112228 29.05761127-64.90112229 64.90112229L284.84607159 740.97387772zM868.95616968 91.96265734999997c0-35.84351018-29.05761127-64.90112228-64.90112229-64.90112229L219.94494931 27.06153588999996c-35.84351018 0-64.90112228 29.05676834-64.90112228 64.90112228L155.04382703 676.07275626c0 35.84351018 29.05761127 64.90112228 64.90112228 64.90112228l0-389.40673206c0-35.84351018 29.05761127-64.90112228 64.90112229-64.90112228l454.30785433 0c35.84351018 0 64.90112228 29.05761127 64.90112229 64.90112228L804.05504739 740.97387772c35.84351018 0 64.90112228-29.05761127 64.90112229-64.90112229L868.95616968 91.96265734999997zM641.80224209 416.46826794c17.9217551 0 32.45056073 14.52880564 32.45056074 32.45056073L674.25280364 643.62219471c0 17.9217551-14.52880564 32.45056073-32.45056072 32.45056072s-32.45056073-14.52880564-32.45056074-32.45056072l0-194.70336603C609.35168137 430.99707358 623.88048701 416.46826794 641.80224209 416.46826794z"  horiz-adv-x="1024" />

    
    <glyph glyph-name="204" unicode="&#59010;" d="M551.598 847.376l183.47-183.47c17.231-17.231 17.231-45.147 0-62.363v0c-17.231-17.216-45.132-17.216-62.347 0l-121.107 121.107c-17.231 17.231-45.147 17.231-62.378 0l-304.593-304.593c-17.231-17.216-17.231-45.132 0-62.363l304.562-304.562c17.231-17.247 45.147-17.247 62.378 0l121.107 121.092c17.216 17.216 45.132 17.216 62.347 0v0c17.231-17.231 17.231-45.147 0-62.347l-183.47-183.501c-17.231-17.216-45.147-17.216-62.378 0l-429.273 429.318c-17.247 17.247-17.247 45.147 0 62.363l429.302 429.302c17.231 17.247 45.147 17.247 62.378 0.015v0zM797.43 539.164v0c17.231 17.216 45.147 17.216 62.347 0l121.123-121.107c17.231-17.216 17.231-45.132 0-62.363l-121.123-121.107c-17.2-17.216-45.132-17.216-62.347 0v0c-17.216 17.231-17.216 45.147 0 62.363l58.745 58.73c17.231 17.247 17.231 45.162 0 62.378l-58.745 58.73c-17.216 17.247-17.216 45.162 0 62.378v0zM520.401 247.218c77.141 0 139.673 62.531 139.673 139.673 0 77.125-62.531 139.657-139.673 139.657-77.125 0-139.642-62.547-139.642-139.657-0.015-77.141 62.516-139.673 139.642-139.673v0zM520.401 314.288c-40.089 0-72.572 32.499-72.572 72.603 0 40.073 32.499 72.572 72.572 72.572 40.103 0 72.603-32.515 72.603-72.572 0-40.103-32.499-72.603-72.603-72.603v0zM520.401 314.288z"  horiz-adv-x="1024" />

    
    <glyph glyph-name="daohang" unicode="&#58937;" d="M887.212 535.356h-567.129c-29.826 0-54.012 23.896-54.012 53.724s24.186 53.724 54.012 53.724h567.128c29.827 0 54.012-23.896 54.012-53.724s-24.184-53.724-54.011-53.724zM887.212 237.574h-567.129c-29.826 0-54.012 24.409-54.012 54.235 0 29.828 24.186 54.235 54.012 54.235h567.128c29.827 0 54.012-24.407 54.012-54.235 0.001-29.827-24.184-54.235-54.011-54.235zM887.212-59.185h-567.129c-29.826 0-54.012 24.408-54.012 54.235s24.186 54.235 54.012 54.235h567.128c29.827 0 54.012-24.408 54.012-54.235s-24.184-54.235-54.011-54.235zM153.565 542.056h-47.261c-13.055 0-23.63 10.601-23.63 23.656v47.235c0 13.081 10.575 23.63 23.63 23.63h47.261c13.054 0 23.63-10.549 23.63-23.63v-47.235c0-13.053-10.576-23.656-23.63-23.656v0zM153.565-52.076h-47.261c-13.055 0-23.63 10.6-23.63 23.656v47.234c0 13.081 10.575 23.631 23.63 23.631h47.261c13.054 0 23.63-10.55 23.63-23.631v-47.234c0-13.055-10.576-23.656-23.63-23.656v0zM153.565 258.493h-47.261c-13.055 0-23.63 10.601-23.63 23.656v47.235c0 13.081 10.575 23.63 23.63 23.63h47.261c13.054 0 23.63-10.549 23.63-23.63v-47.235c0-13.054-10.576-23.656-23.63-23.656v0z"  horiz-adv-x="1024" />

    
    <glyph glyph-name="iconfontfangwu" unicode="&#58888;" d="M603.011-5.996 603.011 218.731 421.737 218.731l0-225.328c-4.415-0.229-7.938-0.57-11.46-0.57-66.705 0-113.443-0.036-180.152 0-22.922 0-38.335 14.703-38.438 39.051-0.463 92.461-0.322 184.999 0.103 277.46 0 4.875 3.704 11.111 7.441 14.438 60.368 53.337 121.056 106.333 181.639 159.372 40.327 35.304 80.621 70.613 120.948 105.88 3.133 2.722 6.339 5.366 10.287 8.736 24.063-21.021 48.017-41.923 71.937-62.865 78.911-69.066 157.718-138.28 236.844-207.081 8.507-7.369 12.139-14.854 12.066-26.759-0.498-87.778-0.357-175.586-0.176-263.323 0.033-15.953-3.704-29.827-16.981-38.636-4.806-3.207-10.892-5.972-16.407-6.009-70.797-0.378-121.594-0.186-192.352-0.148C606.003-7.053 604.93-6.561 603.011-5.996L603.011-5.996 603.011-5.996zM719.332 623.173c0 37.084-0.035 96.331 0 130.544 0.034 21.847-5.055 27.064 15.484 27.101 31.893 0 43.785 0.036 75.678-0.037 16.445-0.041 22.137-6.199 22.176-24.685 0.074-73.219 0.248-146.482-0.216-219.701-0.072-11.303 2.919-18.558 11.28-25.741 34.958-29.864 69.232-60.558 103.688-91.063 16.904-14.971 17.333-22.263 3.095-40.07-8.61-10.811-17.046-21.812-25.732-32.587-10.677-13.341-19.506-14.173-32.283-2.831-122.337 108.415-244.674 216.904-367.05 325.355-4.236 3.742-8.576 7.411-13.528 11.722-27.513-24.349-54.813-48.427-82.044-72.58-99.306-88.006-198.614-176.042-297.923-264.042-13.454-11.944-21.816-11.229-33.135 2.834-9.367 11.681-18.687 23.438-27.907 35.228-10.75 13.761-10.321 22.646 2.669 34.249 55.418 49.255 110.984 98.324 166.509 147.465 73.999 65.511 148.071 130.942 222.036 196.566 33.563 29.751 66.241 29.751 99.878-0.227 39.758-35.418 79.627-70.69 119.453-105.995 1.891-1.667 3.883-3.214 7.869-6.505l0 0L719.332 623.173z"  horiz-adv-x="1024" />

    
    <glyph glyph-name="iconfontdizhi" unicode="&#58962;" d="M328.704 429.056c6.144-9.216 31.744-48.128 160.768-232.448l1.024-1.024c7.168-9.216 19.456-15.36 30.72-15.36 12.288 0 24.576 6.144 30.72 16.384 55.296 79.872 159.744 230.4 163.84 235.52l1.024 1.024c21.504 35.84 33.792 77.824 33.792 119.808 0 125.952-102.4 229.376-229.376 229.376s-229.376-102.4-229.376-229.376C291.84 508.928 304.128 466.944 328.704 429.056L328.704 429.056zM520.192 723.968c94.208 0 171.008-76.8 171.008-171.008 0-30.72-8.192-60.416-24.576-89.088-6.144-9.216-90.112-130.048-145.408-209.92-43.008 61.44-136.192 195.584-145.408 207.872C358.4 488.448 348.16 520.192 348.16 551.936 349.184 646.144 425.984 723.968 520.192 723.968zM520.192 424.96c69.632 0 126.976 57.344 126.976 126.976s-57.344 126.976-126.976 126.976c-69.632 0-126.976-57.344-126.976-126.976S449.536 424.96 520.192 424.96zM520.192 621.568c37.888 0 68.608-30.72 68.608-68.608 0-38.912-30.72-68.608-68.608-68.608-37.888 0-68.608 30.72-68.608 68.608S482.304 621.568 520.192 621.568zM1006.592 126.976 864.256 402.432 746.496 402.432l-46.08-59.392 128 0 130.048-248.832 2.048-2.048c7.168-9.216 7.168-21.504 2.048-31.744-5.12-10.24-15.36-16.384-27.648-16.384L90.112 44.032c-12.288 0-22.528 6.144-27.648 16.384-5.12 11.264-4.096 22.528 3.072 32.768l1.024 1.024L194.56 344.064l145.408 0-48.128 59.392-133.12 0-142.336-276.48c-19.456-27.648-21.504-62.464-6.144-91.136 16.384-30.72 46.08-49.152 80.896-49.152l844.8 0c33.792 0 64.512 18.432 79.872 49.152C1029.12 65.536 1026.048 100.352 1006.592 126.976z"  horiz-adv-x="1024" />

    
    <glyph glyph-name="notice" unicode="&#59014;" d="M798.843 358.679c0 82.366-44.672 154.213-111.054 192.892-3.013 1.592-10.116 4.673-15.069 4.673-14.74 0-26.69-11.955-26.69-26.696 0-9.892 5.27-18.718 13.265-23.329 51.323-29.164 85.969-84.288 85.969-147.539 0-64.365-35.847-120.345-88.666-149.092-7.687-4.685-12.784-13.207-12.784-22.868 0-14.747 11.956-26.697 26.695-26.697 6.263-0.055 13.683 3.639 13.683 3.639 68.382 38.138 114.652 111.16 114.652 195.017zM768.033 687.308c-4.96 2.969-9.907 5.393-15.889 5.393-14.672 0-26.561-11.894-26.561-26.562 0-10.572 6.285-19.074 15.163-23.898 97.506-56.895 163.09-162.524 163.09-283.562 0-120.954-65.501-226.52-162.9-283.436-8.552-4.642-15.911-13.432-15.911-24.301 0-14.674 11.893-26.56 26.562-26.56 5.894 0 10.591 2.262 15.687 5.219 113.155 66.037 189.258 188.623 189.258 329.08 0 140.146-75.771 262.491-188.5 328.629zM133.55 543.403l131.907 0c17.593 0 44.622 7.227 162.512 93.573 21.014 15.393 41.536 30.857 59.295 44.428 0 0 0.453-346.702 0.453-347.71 0-14.808 12.003-26.811 26.811-26.811 14.808 0 26.812 12.002 26.812 26.811 0 2.871-1.299 394.673-1.299 394.673 0.01 12.406-7.099 23.719-18.278 29.113-11.175 5.387-24.45 3.91-34.173-3.822-0.46-0.374-47.818-38.01-100.123-76.532-90.977-67.016-117.46-78.177-122.836-79.947l-113.963 0c-0.658 0-1.28-0.089-1.932-0.099l-58.193 0c-14.668 0-26.562-11.895-26.562-26.562l0-424.052c0-14.668 11.889-26.557 26.562-26.557l195.181-0.011c5.292-1.922 30.288-13.488 111.009-79.317 46.962-38.288 89.104-75.668 89.522-76.036 6.036-5.359 13.703-8.158 21.476-8.158 4.472 0 8.991 0.936 13.241 2.842 11.605 5.221 19.069 16.757 19.069 29.486 0 0 0.057 148.539 0.057 148.919s-0.041 0.747-0.057 1.124l0 0.803-0.04 0c-0.992 13.801-12.473 24.699-26.528 24.699-14.705 0-26.625-11.92-26.625-26.625 0-1.551 0.414-97.44 0.414-97.44-14.317 12.095-30.273 25.376-46.613 38.602-107.766 87.289-134.428 94.592-152.5 94.592-0.356 0-0.686-0.094-1.043-0.106-0.35 0.012-0.685 0.106-1.041 0.106l-146.389 0c-18.612 0-22.918 5.259-22.918 23.948l0 325.445c0 12.662 1.498 20.623 16.79 20.623z"  horiz-adv-x="1024" />

    
    <glyph glyph-name="dingwei" unicode="&#59160;" d="M719.470215 655.683838c-114.215298 114.215298-299.252595 114.215298-413.503708 0-114.215298-114.160039-114.215298-299.343669 0-413.504732 0 0 206.742644-152.841014 206.742644-386.772904 0 233.93189 206.733435 386.772904 206.733435 386.772904C833.749982 356.340169 833.749982 541.523799 719.470215 655.683838"  horiz-adv-x="1024" />

    
    <glyph glyph-name="bianji" unicode="&#59015;" d="M876.181-19.361h-711.982c-7.515 0-14.11 2.945-19.719 7.114-0.819-0.083-1.609-0.357-2.4-0.357-6.269 0-12.481 2.182-17.38 6.348-6.867 5.804-10.407 14.604-9.482 23.538l24.134 233.025c0.549 5.394 2.727 10.464 6.213 14.603l340.554 409.724c4.605 5.529 11.25 8.963 18.388 9.536 7.275 0.734 14.273-1.693 19.75-6.321l200.096-170.155c11.334-9.646 12.779-26.672 3.187-38.085l-339.818-408.826c-3.487-4.144-8.118-7.166-13.324-8.609l-65.085-18.555h565.335c18.66 0 35.333 1.007 35.333-17.653s-15.122-35.333-33.782-35.333l-0.022 0.001zM785.565 538.428l-242.183 204.157 38.875 46.257c21.219 25.278 52.084 39.772 84.698 39.772 25.117 0 49.47-8.879 68.542-24.954l77.23-65.085c45.469-38.355 50.725-107.359 11.713-153.861l-38.875-46.287z"  horiz-adv-x="1024" />

    
    <glyph glyph-name="suidao" unicode="&#59243;" d="M512.000512 766.452641c-279.08323 0-505.324974-226.241744-505.324974-505.322927l0-427.582355 116.613928 0L123.289466 261.129714c0 214.683501 174.027545 388.711046 388.711046 388.711046 214.682477 0 388.710023-174.027545 388.710023-388.711046l0-427.582355L1017.323439-166.452641 1017.323439 261.129714C1017.323439 540.210897 791.080671 766.452641 512.000512 766.452641zM512.000512 300.001023c-85.866646 0-155.485237-69.618591-155.485237-155.484214l0-116.612904c0-13.513782 2.25946-26.38288 5.504364-38.870286l299.958676 0c3.245927 12.487406 5.504364 25.356504 5.504364 38.870286L667.482679 144.51681C667.482679 230.382433 597.864088 300.001023 512.000512 300.001023z"  horiz-adv-x="1024" />

    
    <glyph glyph-name="shoucang1" unicode="&#59074;" d="M511.936 846.272 671.872 525.44 996.992 493.12 740.352 250.944 811.776-78.272 511.936 108.032 212.288-78.272 283.648 250.944 27.008 493.12 352.128 525.44 511.936 846.272Z"  horiz-adv-x="1024" />

    
    <glyph glyph-name="qiyong" unicode="&#58912;" d="M363.096668 44.08224 82.740446 324.438463c-23.26589 23.26589-23.26589 60.957327 0 84.223217 23.26589 23.26589 60.957327 23.26589 84.223217 0l196.133006-196.133006 493.939669 493.939669c23.26589 23.26589 60.957327 23.26589 84.223217 0s23.26589-60.957327 0-84.223217L363.096668 44.08224z"  horiz-adv-x="1024" />

    
    <glyph glyph-name="duobianxing" unicode="&#59068;" d="M684.186106 678.821815 374.245078 506.630081 133.177674 678.821815 64.303027 678.821815l0-757.64363 895.392924 0L959.69595 678.821815 684.186106 678.821815zM856.37784 24.495272 167.608857 24.495272 167.608857 506.630081l206.636221-137.76055 34.43016 0 344.385515 206.635197L856.37784 575.504728 856.37784 24.495272z"  horiz-adv-x="1024" />

    
    <glyph glyph-name="mian" unicode="&#59119;" d="M64.303027 747.706695l0-895.412366 895.392924 0L959.69595 747.706695 64.303027 747.706695zM927.727865-115.71712l-831.436286 0L96.291578 715.736563l831.436286 0L927.727865-115.71712zM767.826038 363.956637l63.956637-383.729591L480.030379 172.087749l-287.813055-159.891593 31.987528 447.695438 191.849446 159.900803 127.913275-159.900803L767.826038 363.956637z"  horiz-adv-x="1024" />

    
    <glyph glyph-name="renwu" unicode="&#58916;" d="M646.247029 320.666556c-3.070942 11.158131-7.543813 21.727861-13.162788 31.575136 6.378268 8.624425 28.428469 40.774659 12.536524 56.650231l-8.138354 8.594749c-13.568017 13.580297-48.244794-7.618515-56.667627-13.111622-9.957793 5.656837-20.676925 10.136871-31.977295 13.186324-1.804089 10.778484-9.720386 48.437176-32.05302 48.437176l-8.942673 0c-19.186991 0-30.190603-38.940894-32.635281-48.706305-11.166317-3.107781-21.722744-7.602142-31.531134-13.238512-7.751544 5.762237-40.96704 28.721135-57.172117 12.515035l-8.617261-7.237845c-14.117532-14.133905 9.347902-51.395554 13.656021-57.918108-5.439896-9.691733-9.79304-20.059871-12.805654-31.023574-9.361205-1.476631-49.346895-9.198499-49.346895-32.216749l0-8.936533c0-19.940145 41.951461-31.017434 49.612954-32.865525 3.027963-10.859325 7.394411-21.169135 12.837376-30.776957-4.502547-7.065929-27.074635-44.165896-13.074783-58.179051l8.154727-6.77531c18.426675-18.411325 56.920384 11.842723 56.920384 11.842723l-1.790786 1.908466c10.213619-6.051833 21.26021-10.822486 32.948413-14.103206 1.922792-7.855922 12.984732-49.508577 32.844036-49.508577l8.942673 0c26.059516 0 32.514531 48.643883 32.514531 48.643883l-2.385327 0.046049c11.80793 3.004427 23.019273 7.565303 33.380248 13.378705 8.154727-5.403057 42.250266-26.759457 55.844889-13.142322l9.064446 9.058306c18.172895 18.165732-11.389398 55.339376-12.211113 56.374962 5.622044 9.831926 10.108219 20.380166 13.207813 31.531134 10.169617 2.585895 48.4075 13.551644 48.4075 32.56672l0 8.936533C694.608479 313.413362 649.09489 320.241884 646.247029 320.666556zM512.057817 209.436242c-40.831964 0-73.91443 33.073256-73.91443 73.900104s33.082466 73.90829 73.91443 73.90829c40.804335 0 73.884754-33.081443 73.884754-73.90829S552.862151 209.436242 512.057817 209.436242zM806.838563 707.787384l0 48.160883c0 47.422056-29.934776 75.747171-80.056314 75.747171-50.090838 0-80.027661-28.326139-80.027661-75.747171l0-48.160883-54.235229 0 0 48.160883c0 47.422056-29.906124 75.747171-80.028685 75.747171-50.120514 0-80.026638-28.326139-80.026638-75.747171l0-48.160883-54.265928 0 0 48.160883c0 47.422056-29.9051 75.747171-80.026638 75.747171-50.090838 0-80.026638-28.326139-80.026638-75.747171l0-48.160883-91.89392 0 0-771.483846 771.499196 0L897.750109 707.787384 806.838563 707.787384zM689.630095 755.948267c0 23.397896 10.733459 32.887015 37.152155 32.887015 26.476001 0 37.180807-9.488095 37.180807-32.887015l0-128.830157c0-23.390733-10.704806-32.888038-37.180807-32.888038-26.417673 0-37.152155 9.496282-37.152155 32.888038L689.630095 755.948267zM475.339544 755.948267c0 23.397896 10.704806 32.887015 37.151132 32.887015 26.448372 0 37.181831-9.488095 37.181831-32.887015l0-128.830157c0-23.390733-10.733459-32.888038-37.181831-32.888038-26.446325 0-37.151132 9.496282-37.151132 32.888038L475.339544 755.948267zM260.990664 755.948267c0 23.397896 10.733459 32.887015 37.179784 32.887015 26.448372 0 37.211507-9.488095 37.211507-32.887015l0-128.830157c0-23.390733-10.764158-32.888038-37.211507-32.888038-26.446325 0-37.179784 9.496282-37.179784 32.888038L260.990664 755.948267zM833.464991 0.578424 190.533986 0.578424 190.533986 536.342664l642.932028 0L833.466014 0.578424z"  horiz-adv-x="1024" />

    
    <glyph glyph-name="dingwei2" unicode="&#59137;" d="M510.615978 833.646883c-185.28903 0-335.492984-150.203954-335.492984-335.49196 0-185.288007 150.203954-335.512427 335.492984-335.512427 185.28596 0 335.496054 150.22442 335.496054 335.512427C846.113055 683.441906 695.902962 833.646883 510.615978 833.646883M510.615978 340.526883c-87.055728 0-157.629063 70.573335-157.629063 157.627017s70.573335 157.627017 157.629063 157.627017c87.059821 0 157.627017-70.573335 157.627017-157.627017S597.6758 340.526883 510.615978 340.526883M239.179916 301.028287 510.615978-62.955588 776.097422 292.992263Z"  horiz-adv-x="1024" />

    
    <glyph glyph-name="guanlian" unicode="&#59306;" d="M911.877 680.049l-86.933 80.53c-96.049 88.954-251.746 88.954-347.794 0l-130.373-120.797c-95.992-88.896-95.992-233.112 0-322.009l86.934-80.529 86.933 80.529-86.933 80.531c-47.995 44.419-47.995 116.528 0 161.003l130.431 120.738c47.995 44.535 125.873 44.535 173.868 0l86.934-80.53c47.995-44.419 47.995-116.528 0-161.003l86.933-80.473c95.992 88.896 95.992 233.113 0 322.009zM677.208 450.34l-86.878 80.53-86.992-80.53 86.992-80.53c47.995-44.535 47.995-116.644 0-161.063l-130.43-120.797c-48.053-44.535-125.873-44.535-173.869 0l-86.934 80.53c-47.995 44.419-47.995 116.527 0 161.063l-86.934 80.53c-96.049-88.954-96.049-233.171 0-322.124l86.934-80.53c95.992-88.954 251.746-88.954 347.737 0l130.373 120.797c96.049 88.953 96.049 233.171 0.001 322.124z"  horiz-adv-x="1024" />

    
    <glyph glyph-name="yiyuan" unicode="&#59322;" d="M435.69922 513.382743 435.69922 650.51396l152.97302 0L588.67224 513.382743l85.764316 85.767386c29.871331 29.868261 29.871331 78.295204 0 108.166535L566.268998 815.483198c-29.868261 29.871331-78.299297 29.871331-108.166535 0L349.935927 707.316663c-29.871331-29.871331-29.871331-78.299297 0-108.166535L435.69922 513.382743zM244.484224 306.325943 244.484224 459.29794 381.615441 459.29794l-85.767386 85.764316c-29.868261 29.871331-78.295204 29.871331-108.166535 0L79.513962 436.895721c-29.871331-29.868261-29.871331-78.299297 0-108.166535l108.166535-108.166535c29.871331-29.871331 78.299297-29.871331 108.166535 0l85.767386 85.764316L244.484224 306.326966zM588.67224 252.241141l0-137.131217L435.69922 115.109923 435.69922 252.241141l-85.764316-85.767386c-29.871331-29.868261-29.871331-78.295204 0-108.166535l108.166535-108.166535c29.868261-29.871331 78.299297-29.871331 108.166535 0l108.166535 108.166535c29.871331 29.871331 29.871331 78.299297 0 108.166535L588.67224 252.241141zM944.857499 436.895721 836.690964 545.062256c-29.871331 29.871331-78.299297 29.871331-108.166535 0l-85.767386-85.764316 137.131217 0 0-152.97302L642.757043 306.32492l85.767386-85.764316c29.868261-29.871331 78.295204-29.871331 108.166535 0l108.166535 108.166535C974.72883 358.596424 974.72883 407.027459 944.857499 436.895721z"  horiz-adv-x="1024" />

    
    <glyph glyph-name="canshucaiji" unicode="&#59020;" d="M664.25 483.281v267.769h-304.5v-267.769l-106.838-100.706v-76.631h518.175v76.631zM268.662 834h486.656v-55.631h-486.656v55.631zM512-64.238l-74.006 340.894h147.994z"  horiz-adv-x="1024" />

    
    <glyph glyph-name="jiedianbianji" unicode="&#59343;" d="M209.145879 143.66426 209.145879 726.356298l-52.670593 0 0-582.692039c-45.430702-11.694343-79.005378-52.939723-79.005378-102.020558 0-58.172911 47.167253-105.338117 105.340163-105.338117 49.079812 0 90.326215 33.573653 102.021581 79.004355l582.691015 0 0 52.670593L284.825512 67.980533C275.295462 104.992495 246.158864 134.136256 209.145879 143.66426zM288.151257 146.983865 314.486042 146.983865 314.486042 173.319673 314.486042 199.653435 261.816472 199.653435 261.816472 173.319673 288.151257 173.319673ZM788.518313 542.010757 656.842341 673.685705 340.821851 357.665215 340.821851 225.990267 472.496799 225.990267ZM814.847734 831.701374l131.67416-131.67416-105.339473-105.339473-131.67416 131.67416 105.339473 105.339473Z"  horiz-adv-x="1024" />

    
    <glyph glyph-name="miaodian" unicode="&#59350;" d="M959.69595 406.384823 827.048861 406.384823C816.053436 563.111331 691.099562 688.052924 534.384311 699.059606L534.384311 831.696462l-44.769646 0 0-132.636856c-156.715251-11.006681-281.668101-135.948275-292.663526-292.674782L64.303027 406.384823l0-44.769646 132.648113 0C207.946564 204.899926 332.899414 79.947076 489.614665 68.940394l0-132.635833 44.769646 0L534.384311 68.940394c156.715251 11.006681 281.669124 135.959531 292.664549 292.674782l132.647089 0L959.69595 406.384823zM776.201799 406.384823 666.92293 406.384823c-9.837042 68.575842-63.963801 122.69032-132.539642 132.527362L534.383288 648.2238C663.03232 637.447363 765.446851 535.043065 776.201799 406.384823zM489.614665 648.2238l0-109.311615c-68.574818-9.837042-122.700553-63.952544-132.538619-132.527362L247.797178 406.384823C258.553149 535.043065 360.96768 637.447363 489.614665 648.2238zM247.797178 361.615177l109.278869 0c9.837042-68.574818 63.963801-122.69032 132.538619-132.527362l0-109.311615C360.96768 130.552637 258.553149 232.956935 247.797178 361.615177zM534.384311 119.7762 534.384311 229.087814c68.575842 9.837042 122.701576 63.952544 132.539642 132.527362l109.278869 0C765.446851 232.956935 663.03232 130.552637 534.384311 119.7762z"  horiz-adv-x="1024" />

    
    <glyph glyph-name="xuanze3" unicode="&#59371;" d="M241.30737 61.240015 241.30737 831.696462 782.691607 283.784554 511.984139 283.784554 665.105538 32.569022 584.884472-63.695438 420.812673 217.411891Z"  horiz-adv-x="1024" />

    
    <glyph glyph-name="kuaijin" unicode="&#59060;" d="M102.4 72.580096 511.997952 384 102.4 695.419904ZM921.6 384 511.997952 695.419904 511.997952 384 511.997952 72.580096Z"  horiz-adv-x="1024" />

    
    <glyph glyph-name="dian" unicode="&#58964;" d="M512 371.8656m-282.9312 0a5.526 5.526 0 1 0 565.8624 0 5.526 5.526 0 1 0-565.8624 0Z"  horiz-adv-x="1024" />

    
    <glyph glyph-name="wujiaoxing" unicode="&#59138;" d="M670.208 559.030857 1024 504.978286 768.073143 242.688 828.562286-127.853714 512.073143 47.030857 195.657143-128 256 242.541714 0 504.905143 353.718857 558.957714 511.926857 896 670.208 559.030857Z"  horiz-adv-x="1024" />

    
    <glyph glyph-name="shangchengicon01" unicode="&#59043;" d="M922.699 383.822c0 17.642-14.343 31.996-31.972 31.996h-688.537l328.292 328.564c12.453 12.469 12.453 32.759-0.006 45.238-6.044 6.044-14.075 9.372-22.615 9.372-8.543 0-16.574-3.33-22.613-9.375l-382.859-383.175c-5.934-5.94-9.151-13.762-9.351-21.786-0.012-0.313-0.012-0.625-0.015-0.939 0.002-0.313 0.002-0.625 0.015-0.939 0.2-8.024 3.416-15.845 9.351-21.786l382.859-383.174c6.040-6.046 14.072-9.377 22.613-9.377 8.54 0 16.571 3.328 22.615 9.372 12.458 12.48 12.458 32.769 0.006 45.239l-328.292 328.563h688.537c17.629 0 31.972 14.354 31.972 31.996 0 0.035-0.002 0.070-0.002 0.105 0 0.035 0.002 0.070 0.002 0.105z"  horiz-adv-x="1025" />

    
    <glyph glyph-name="jingdiananli" unicode="&#58905;" d="M511.9987044 890.83290278c-277.01228645 0-501.5816072-224.56284028-501.58160718-501.58160718 0-277.0200625 224.56932074-501.58290278 501.58160718-501.5829028 277.01358332 0 501.58290278 224.56284028 501.5829028 501.5829028C1013.58290278 666.2700625 789.01228645 890.83290278 511.9987044 890.83290278L511.9987044 890.83290278zM511.9987044-43.026695909999944c-238.73693037 0-432.27799277 193.53976553-432.27799274 432.27799277 0 238.73693037 193.54106238 432.27799277 432.27799274 432.27799276 238.73822597 0 432.27928834-193.54106238 432.27928837-432.27799276C944.27799277 150.51177402999997 750.73822597-43.026695909999944 511.9987044-43.026695909999944L511.9987044-43.026695909999944zM744.779328 499.7228853c-27.42285282 0-49.9870914-23.37292753-49.9870914-50.20611167 0-12.76147589 4.96358857-24.00666017 11.28276773-31.08398509l0 0 0.00648045 0-69.70795954-81.98603668-24.64298394 147.01811434c21.77498978 7.01511772 36.62039467 24.00666018 36.62039465 49.46999719 0 29.66748291-24.67927181 53.72468618-53.56139395 53.7246862-29.58194875 0-53.50177918-24.05072281-53.50177918-53.7246862 0-16.99154243 7.71883367-33.13810674 21.11533777-43.75603882L514.51808151 342.93959177l-1.45538127 0-49.96246886 146.23404917c16.15304482 7.76160075 24.6170646 27.17272957 24.61706458 43.44370834 0 29.66748291-24.61706461 53.87372444-53.4991867 53.87372446-29.57935757 0-53.56398514-23.9703723-53.56398518-53.631376 0-26.92390191 19.75456234-48.74165876 39.50134986-49.44537338l-30.30121556-146.99219501-72.58891343 82.70659904c9.88959367 15.56208052 11.97870632 22.59663843 11.97870632 30.38934212 0 27.54726729-22.52665513 50.90723516-49.99227631 50.90723512-27.4656199 0-50.74523849-23.35478423-50.7452385-50.89427544 0-26.85521547 21.89292375-50.20999969 46.5164676-50.2099997l74.69617062-207.76439877c43.64199288 3.50172681 93.62778872 11.95926742 161.92572648 11.9592674 43.00178106 0 102.82792298-4.22229049 162.70979169-11.9592674l76.08934593 207.07882741c25.37650728 3.5328311 45.06756676 24.72981498 45.06756678 50.89427544C795.50512633 476.3369981 772.28123579 499.7228853 744.779328 499.7228853L744.779328 499.7228853zM744.779328 499.7228853"  horiz-adv-x="1024" />

    
    <glyph glyph-name="mianji" unicode="&#58965;" d="M192 640 192 640 256 704 256 64 192 128 832 128 768 64 768 704 832 640 192 640 192 640 192 640 192 640 192 640 192 640 192 640 192 640 192 640 192 640 192 640 192 640 192 640ZM192 704 832 704 832 64 192 64 192 704 192 704 192 704 192 704 192 704 192 704 192 704 192 704 192 704 192 704 192 704 192 704 192 704 192 704ZM128 128 192 128 192 64 128 64 128 128 128 128ZM128 64 192 64 192 0 128 0 128 64 128 64ZM192 64 256 64 256 0 192 0 192 64 192 64ZM256 64 320 64 320 0 256 0 256 64 256 64ZM128 192 192 192 192 128 128 128 128 192 128 192ZM832 192 896 192 896 128 832 128 832 192 832 192ZM704 64 768 64 768 0 704 0 704 64 704 64ZM768 64 832 64 832 0 768 0 768 64 768 64ZM832 64 896 64 896 0 832 0 832 64 832 64ZM832 128 896 128 896 64 832 64 832 128 832 128ZM704 768 768 768 768 704 704 704 704 768 704 768ZM832 768 896 768 896 704 832 704 832 768 832 768ZM768 768 832 768 832 704 768 704 768 768 768 768ZM832 640 896 640 896 576 832 576 832 640 832 640ZM832 704 896 704 896 640 832 640 832 704 832 704ZM128 768 192 768 192 704 128 704 128 768 128 768ZM256 768 320 768 320 704 256 704 256 768 256 768ZM192 768 256 768 256 704 192 704 192 768 192 768ZM128 640 192 640 192 576 128 576 128 640 128 640ZM128 704 192 704 192 640 128 640 128 704 128 704Z"  horiz-adv-x="1024" />

    
    <glyph glyph-name="qiangzhi" unicode="&#59023;" d="M952.197674 633.439072c-33.80185 1.831718-43.627636 8.853645-52.333926 41.218774-4.638647 17.243733-18.632359 13.372565-29.172413 13.517875-6.461155 0.099261-17.361413-6.398734-18.821671-11.910261-5.739724-21.711488-18.733667-25.663496-39.433104-25.508977-173.877119 1.344624-347.764472 1.515516-521.650801 2.136663-15.393595 0.055259-32.041764-4.430916-41.551348 15.051811-2.375094 4.846378-12.605086 7.488555-19.534915 8.212032-35.009352 3.672646-70.111824 6.378268-107.818611 9.66308-2.806929-14.192234 3.238764-34.503838-7.065929-53.985542-7.821129-14.787798-10.339486-26.257014-29.66667-14.319124-4.069689 2.527566-14.610766-1.092891-19.066241-5.215792-2.555196-2.373047-0.676405-12.704346 2.434445-17.252943 4.504594-6.576789 12.993942-10.376325 17.758456-16.83748 3.663436-4.980431 6.79373-12.785188 5.638417-18.405185-4.231371-20.475334-10.159384-40.614-15.816221-60.781318-8.816806-31.454386-8.779967-31.609928 22.944572-42.408879 7.075139-2.418073 14.06739-5.215792 20.780279-8.500605 36.337603-17.749246 45.270043-41.380456 29.938869-78.954213-10.187013-24.956392-22.655999-49.220005-30.379914-74.918293C102.408391 237.755218 85.129866 181.11522 73.191976 123.456009c-7.497765-36.210713 0.720408-42.327014 37.680181-42.761919 53.959959-0.630357 107.946524-0.657986 161.904437 0.325411 42.600237 0.766456 43.168172 1.623987 42.815131 41.147142-0.621147 70.056566 27.386744 132.893706 48.986691 197.292412 8.752338 26.111704 29.100782 36.254715 56.404638 29.694299 64.283072-15.465227 129.223107-13.335726 194.389292-8.507768 16.240893 1.198292 23.712051 9.718339 27.375487 24.586978 6.470365 26.176173 13.157671 52.324716 20.953218 78.115102 9.852392 32.635281 15.564487 36.660968 49.5096 36.83186 56.981782 0.297782 113.972774 0.795109 170.936137-0.170892 20.897959-0.353041 29.516244 5.684466 29.262464 28.024264-0.251733 23.146163 4.403287 46.344514 7.084349 71.02359l42.715871 0 0 52.405557C957.945585 632.439302 955.085444 633.2866 952.197674 633.439072L952.197674 633.439072zM305.186747 589.758224c-5.349845 0.1361-10.565636 5.631254-15.83464 8.645914 5.359055 3.76065 10.646478 10.655687 16.09763 10.780531 39.486316 0.940418 79.007425 0.505513 118.52751 0.505513 1.660826-2.191922 3.330862-4.365424 4.998851-6.551206-6.163373-4.700045-12.198833-13.217023-18.514679-13.434987C375.407042 588.469881 340.269777 588.883297 305.186747 589.758224L305.186747 589.758224zM640.978537 432.520063c-5.234211-18.74083-11.965519-37.048801-17.342993-55.754838-4.349051-15.130605-14.048971-22.828938-29.424146-22.584368-44.720527 0.729617-89.538269 0.260943-134.113487 3.247974-60.564377 4.051269-65.256236 54.879911-47.76077 89.178065 7.199982 14.111392 31.463596 19.733437 48.508807 28.123524 1.155313 0.586354 8.789177-7.631818 9.93528-12.568247 1.236154-5.349845-1.263783-11.730159-2.698458-17.532305-12.993942-52.731992 11.08036-80.631412 69.072145-75.008344-3.238764 1.478677-6.297426 2.912329-9.174963 4.347005-2.869351 1.427512-5.559623 2.834558-8.066723 4.231371-5.01727 2.806929-9.314133 5.594415-12.921287 8.482185-9.91686 7.941879-14.635325 16.629749-14.871709 28.486798-0.270153 14.014178 5.702885 32.466436 16.765849 59.355853 25.077142-13.464663 51.396577-9.437953 77.55433-7.372921 8.726755 0.695848 17.423835 1.164522 26.060539 0.695848C639.579677 466.365916 648.269593 458.677816 640.978537 432.520063L640.978537 432.520063zM640.978537 432.520063"  horiz-adv-x="1024" />

    
    <glyph glyph-name="guanli" unicode="&#59024;" d="M942.581 637.593c0 0-109.281-110.007-120.461-121.223-11.215-11.181-48.807-9.935-48.807-9.935s-99.727 11.215-114.127 25.546c-14.331 14.4-24.265 118.557-24.265 118.557s-2.7 29.111 11.631 43.511c14.365 14.331 120.946 120.877 120.946 120.877s13.743 15.404-6.093 15.473c-63.969 0.243-193.985-1.211-256.915-64.211l-12.981-12.911c-74.389-74.873-79.304-187.581-19.523-268.407l-367.857-332.827c-29.285-29.285-67.811-108.9 0-176.711s147.427-29.25 176.677 0c0 0 240.957 263.631 261.589 286.685 20.631 23.089 9.831 47.215 9.831 47.215s-42.439 59.227-65.285 94.639c-12.427 19.35-6.543 21.773 11.077 10.489 48.669-31.085 105.473-66.807 115.339-71.481l0.173 0.173c80.55-60.404 193.223-55.627 268.027 19.281l12.911 12.946c61.027 60.993 62.861 189.865 63.139 254.977 0.173 20.735-15.023 7.339-15.023 7.339zM202.157 13.027c-34.2 0-61.927 27.727-61.927 61.927s27.727 61.927 61.927 61.927 61.927-27.727 61.927-61.927-27.727-61.927-61.927-61.927z"  horiz-adv-x="1024" />

    
    <glyph glyph-name="jieshu" unicode="&#58945;" d="M212.992 369.664 212.992 369.664 212.992 369.664 215.04 369.664 212.992 369.664ZM817.152 693.248 817.152 693.248C737.28 773.12 628.736 820.224 509.952 820.224c-118.784 0-229.376-49.152-307.2-126.976l0 0c-77.824-77.824-126.976-186.368-126.976-307.2 0-118.784 49.152-229.376 126.976-307.2 77.824-79.872 188.416-126.976 307.2-126.976 120.832 0 229.376 49.152 307.2 126.976 79.872 77.824 126.976 186.368 126.976 307.2C946.176 506.88 897.024 615.424 817.152 693.248zM770.048 125.952c-65.536-65.536-157.696-108.544-260.096-108.544-102.4 0-194.56 40.96-260.096 108.544C184.32 191.488 141.312 283.648 141.312 386.048s40.96 194.56 108.544 260.096C317.44 711.68 409.6 754.688 509.952 754.688c100.352 0 192.512-40.96 258.048-106.496l2.048-2.048c65.536-65.536 108.544-157.696 108.544-260.096S837.632 191.488 770.048 125.952zM724.992 599.04 724.992 599.04 296.96 599.04 296.96 171.008 724.992 171.008 724.992 599.04Z"  horiz-adv-x="1024" />

    
    <glyph glyph-name="jiahao" unicode="&#58924;" d="M917 339l-360 0 0-371.25c0-18.63-15.12-33.75-33.75-33.75l-22.5 0c-18.652 0-33.75 15.12-33.75 33.75l0 371.25-360 0c-24.862 0-45 20.137-45 45s20.138 45 45 45l360 0 0 371.25c0 18.63 15.12 33.75 33.75 33.75l22.5 0c18.63 0 33.75-15.12 33.75-33.75l0-371.25 360 0c24.862 0 45-20.137 45-45s-20.16-45-45-45z"  horiz-adv-x="1024" />

    
    <glyph glyph-name="212" unicode="&#58946;" d="M434.654807 32.647336c-1.294544 0-2.584995 0.014327-3.886703 0.041958-95.239583 2.063084-173.08315 81.187892-182.945225 91.627139-9.840584 9.249085-77.366683 75.937056-79.610901 165.79379-1.369249 54.786349 21.27658 105.904992 67.306077 151.934489l333.32319 333.322167c5.897597 6.174926 48.547975 48.478387 111.084193 49.851729 44.982605 0.977304 88.034138-18.755032 127.996162-58.682262 4.550861-4.485366 51.45328-52.259684 51.991565-115.416056 0.316217-37.040345-14.736316-71.035184-44.739046-101.036891l-320.821882-320.821882c-1.447024-1.448048-3.035272-2.746686-4.741205-3.877493-24.049873-15.948992-80.94331-34.700954-124.126856 8.482592-0.336684 0.335661-0.664158 0.679508-0.984468 1.031542-2.597276 2.850044-15.8661 18.257682-22.07889 41.730382-8.85407 33.448368 1.153321 66.753465 28.180135 93.780278l233.325005 233.325005c11.989631 11.989631 31.428264 11.989631 43.417895 0s11.989631-31.428264 0-43.417895l-233.325005-233.325005c-15.176359-15.176359-14.255339-27.045234-12.241376-34.65081 2.130626-8.048689 6.684557-14.264549 7.839925-15.750461 15.629705-14.712779 36.755852-5.220135 44.004277-1.227003l318.135575 318.136598c18.081665 18.080641 26.835446 36.650446 26.759717 56.768588-0.144293 38.372753-32.201921 71.038254-33.608011 72.449461-0.138153 0.130989-0.145316 0.141223-0.316217 0.312123-27.680737 27.680737-55.717602 41.431562-83.318517 40.802199-39.465697-0.866782-67.519958-30.31997-67.793194-30.617767-0.302913-0.331567-0.614013-0.655971-0.932277-0.974234l-333.613823-333.613823c-33.672482-33.672482-50.273352-69.667981-49.341075-106.983608 0.884179-35.373299 17.26912-66.878315 30.859279-87.076278 14.882656-22.120848 29.507426-35.595367 29.651719-35.725333 0.708162-0.64062 1.385623-1.312965 2.030337-2.017033 0.618107-0.668251 66.760629-71.313536 140.197627-72.754421 32.18043-0.648807 60.857916 12.09913 87.678011 38.919225l229.231584 229.231584c11.989631 11.990654 31.428264 11.990654 43.417895 0 11.989631-11.989631 11.989631-31.427241 0-43.416871l-229.231584-229.231584C525.642349 51.788173 482.33293 32.647336 434.654807 32.647336z"  horiz-adv-x="1024" />

    
    <glyph glyph-name="fenzhi" unicode="&#59027;" d="M730.61709 304.565856c-13.516852 0-26.495444-2.267647-38.675858-6.306636L575.568804 479.819322c28.567639 22.595624 46.991244 57.479109 46.991244 96.647177 0 67.967998-55.290257 123.265418-123.258255 123.265418s-123.265418-55.298444-123.265418-123.265418c0-44.360324 23.636327-83.20605 58.895365-104.921631L323.087443 297.048649c-13.125949 4.776793-27.219945 7.517207-41.977044 7.517207-67.967998 0-123.265418-55.298444-123.265418-123.265418s55.298444-123.265418 123.265418-123.265418 123.258255 55.298444 123.258255 123.265418c0 31.241538-11.776208 59.719126-31.001061 81.46643l122.181737 190.624549c1.257643-0.037862 2.485611-0.190335 3.753487-0.190335 6.804986 0 13.43601 0.698918 19.945261 1.765203l121.502261-189.56645c-20.647249-22.049179-33.397644-51.580772-33.397644-84.099397 0-67.967998 55.298444-123.265418 123.265418-123.265418s123.258255 55.298444 123.258255 123.265418S798.585087 304.565856 730.61709 304.565856zM281.110399 118.87262c-34.421974 0-62.427818 27.997658-62.427818 62.427818s28.005844 62.427818 62.427818 62.427818 62.419631-27.997658 62.419631-62.427818S315.532373 118.87262 281.110399 118.87262zM499.302817 638.894318c34.421974 0 62.419631-27.997658 62.419631-62.427818s-27.997658-62.427818-62.419631-62.427818-62.427818 27.997658-62.427818 62.427818S464.879819 638.894318 499.302817 638.894318zM730.61709 118.87262c-34.421974 0-62.427818 27.997658-62.427818 62.427818s28.005844 62.427818 62.427818 62.427818 62.419631-27.997658 62.419631-62.427818S765.039064 118.87262 730.61709 118.87262z"  horiz-adv-x="1024" />

    
    <glyph glyph-name="iconset0420" unicode="&#59181;" d="M718.933333 398.933333l-384 405.333333C330.666667 808.533333 326.4 810.666667 320 810.666667c-12.8 0-21.333333-8.533333-21.333333-21.333333 0-6.4 2.133333-10.666667 6.4-14.933333L674.133333 384 305.066667-6.4C300.8-10.666667 298.666667-14.933333 298.666667-21.333333c0-12.8 8.533333-21.333333 21.333333-21.333333 6.4 0 10.666667 2.133333 14.933333 6.4l384 405.333333c4.266667 4.266667 6.4 8.533333 6.4 14.933333S723.2 394.666667 718.933333 398.933333z"  horiz-adv-x="1024" />

    
    <glyph glyph-name="tijiandanwei" unicode="&#58907;" d="M717.765387 624.788042l114.852818 0c11.311627 0 20.905122 9.117658 20.905122 20.678972 0 11.308557-9.593496 20.653389-20.905122 20.653389L717.765387 666.120402c-11.56029 0-20.905122-9.344832-20.905122-20.653389C696.860265 633.9057 706.204074 624.788042 717.765387 624.788042L717.765387 624.788042zM717.765387 458.528414 717.765387 458.528414l114.852818 0c11.311627 0 20.905122 9.596566 20.905122 20.905122 0 11.561313-9.593496 20.905122-20.905122 20.905122L717.765387 500.338658c-11.56029 0-20.905122-9.344832-20.905122-20.905122C696.860265 468.124979 706.204074 458.528414 717.765387 458.528414L717.765387 458.528414zM190.399421 292.750763 190.399421 292.750763l114.37391 0c11.561313 0 20.905122 9.592472 20.905122 20.905122 0 11.55722-9.344832 20.905122-20.905122 20.905122L190.399421 334.561008c-11.813047 0-21.156856-9.347902-21.156856-20.905122C169.242566 302.344259 178.587398 292.750763 190.399421 292.750763L190.399421 292.750763zM717.765387 292.750763 717.765387 292.750763l114.852818 0c11.311627 0 20.905122 9.592472 20.905122 20.905122 0 11.55722-9.593496 20.905122-20.905122 20.905122L717.765387 334.561008c-11.56029 0-20.905122-9.347902-20.905122-20.905122C696.860265 302.344259 706.204074 292.750763 717.765387 292.750763L717.765387 292.750763zM502.768755 126.966972 502.768755 126.966972l114.8784 0c11.561313 0 20.905122 9.344832 20.905122 20.905122s-9.344832 20.401656-20.905122 20.401656L502.768755 168.27375c-11.308557 0-20.905122-8.840342-20.905122-20.401656S491.460198 126.966972 502.768755 126.966972L502.768755 126.966972zM920.92339 834.369338 920.92339 834.369338 414.715303 834.369338c-19.419282 0-34.909068-15.741519-34.909068-34.455743l0-304.485783L103.328343 495.427812c-19.192108 0-34.93465-15.741519-34.93465-34.930557l0-492.434385c0-18.940374 15.741519-34.43016 34.93465-34.43016l817.595047 0c19.192108 0 34.682917 15.489786 34.682917 34.43016L955.606307 799.913595C955.606307 818.626795 940.115498 834.369338 920.92339 834.369338L920.92339 834.369338zM379.806235 2.996496 379.806235 2.996496 137.758504 2.996496 137.758504 426.061978l242.046708 0L379.805212 2.996496 379.806235 2.996496zM886.495276 2.996496 886.495276 2.996496l-437.575963 0L448.919313 765.007597l437.575963 0L886.495276 2.996496 886.495276 2.996496zM717.765387 126.966972 717.765387 126.966972l114.852818 0c11.311627 0 20.905122 9.344832 20.905122 20.905122s-9.593496 20.401656-20.905122 20.401656L717.765387 168.27375c-11.56029 0-20.905122-8.840342-20.905122-20.401656S706.204074 126.966972 717.765387 126.966972L717.765387 126.966972zM502.768755 292.750763 502.768755 292.750763l114.8784 0c11.561313 0 20.905122 9.592472 20.905122 20.905122 0 11.55722-9.344832 20.905122-20.905122 20.905122L502.768755 334.561008c-11.308557 0-20.905122-9.347902-20.905122-20.905122C481.863632 302.344259 491.460198 292.750763 502.768755 292.750763L502.768755 292.750763zM502.768755 458.528414 502.768755 458.528414l114.8784 0c11.561313 0 20.905122 9.596566 20.905122 20.905122 0 11.561313-9.344832 20.905122-20.905122 20.905122L502.768755 500.338658c-11.308557 0-20.905122-9.344832-20.905122-20.905122C481.863632 468.124979 491.460198 458.528414 502.768755 458.528414L502.768755 458.528414zM502.768755 624.788042 502.768755 624.788042l114.8784 0c11.561313 0 20.905122 9.117658 20.905122 20.678972 0 11.308557-9.344832 20.653389-20.905122 20.653389L502.768755 666.120402c-11.308557 0-20.905122-9.344832-20.905122-20.653389C481.863632 633.9057 491.460198 624.788042 502.768755 624.788042L502.768755 624.788042zM190.399421 126.966972 190.399421 126.966972l114.37391 0c11.561313 0 20.905122 9.344832 20.905122 20.905122s-9.344832 20.401656-20.905122 20.401656L190.399421 168.27375c-11.813047 0-21.156856-8.840342-21.156856-20.401656S178.587398 126.966972 190.399421 126.966972L190.399421 126.966972z"  horiz-adv-x="1024" />

    
    <glyph glyph-name="xiangqing" unicode="&#59078;" d="M513.717619 831.532733c-247.535723 0-448.205045-200.672392-448.205045-448.211185 0-247.536746 200.669322-448.205045 448.205045-448.205045 247.540839 0 448.211185 200.668299 448.211185 448.205045C961.928804 630.860341 761.258459 831.532733 513.717619 831.532733L513.717619 831.532733zM507.696486 61.119265c-22.99369-12.846586-41.802058-19.270902-56.388265-19.270902-12.787234 0-22.915919 3.931542-30.395264 11.776208-7.481392 7.848759-11.218506 18.738783-11.218506 32.654724 0 44.601824 27.373441 153.62589 82.125439 327.059917 2.559289 8.209986 3.837398 15.527648 3.837398 21.945825 0 7.131421-3.28686 10.704806-9.857509 10.704806-7.305383 0-15.600303-2.861164-24.904203-8.563026-9.31311-5.713119-30.039153-23.914666-62.147432-54.602595l-24.093744 18.201547c36.455283 39.250956 69.725014 67.184145 99.79589 83.773985 30.086226 16.590863 55.685253 24.8909 76.832899 24.8909 11.673877 0 20.60427-2.499937 26.800389-7.489578 6.191003-5.002944 9.299807-11.776208 9.299807-20.343327 0-10.353812-11.830443-54.248531-35.499515-131.687228-38.579667-126.679168-57.871035-203.057719-57.871035-229.101885 0-4.999874 1.269923-9.193383 3.832282-12.577456 2.552126-3.394307 5.2864-5.078669 8.214079-5.078669 11.67797 0 41.6107 22.116717 89.788979 66.372663l21.35333-20.340257C567.184345 103.413534 530.692223 73.966874 507.696486 61.119265L507.696486 61.119265zM635.065362 603.412199c-11.136641-11.962449-23.635303-17.928325-37.505195-17.928325-10.94733 0-20.076244 3.747347-27.376511 11.242042-7.300266 7.486508-10.94733 17.300015-10.94733 29.440519 0 16.053628 5.28333 29.707602 15.876596 40.950667 10.579963 11.235902 23.177885 16.854876 37.784558 16.854876 11.304464 0 20.61655-3.66139 27.916816-10.967796 7.300266-7.322779 10.946306-16.688077 10.946306-28.102035C651.764696 629.196445 646.19791 615.372601 635.065362 603.412199L635.065362 603.412199z"  horiz-adv-x="1024" />

    
    <glyph glyph-name="daochu" unicode="&#58952;" d="M559.461 257.437v274.219h142.383l-189.844 274.219-189.844-274.219h142.383v-274.219h94.922zM933.875-37.875h-843.75v332.227h58.008v-274.219h727.734v274.219h58.008v-332.227z"  horiz-adv-x="1024" />

    
    <glyph glyph-name="jianqie" unicode="&#59124;" d="M761.6 291.2c-6.4 0-6.4 0-12.8 0l-198.4 179.2 409.6 371.2-38.4 44.8-416-371.2-416 377.6-38.4-44.8 409.6-371.2-198.4-179.2c-108.8-6.4-198.4-96-198.4-211.2s96-211.2 211.2-211.2 211.2 96 211.2 211.2c0 96-64 172.8-147.2 198.4l166.4 147.2 172.8-153.6c-76.8-32-128-108.8-128-192 0-115.2 96-211.2 211.2-211.2s211.2 96 211.2 211.2-96 204.8-211.2 204.8zM428.8 86.4c0-83.2-70.4-153.6-153.6-153.6s-153.6 70.4-153.6 153.6 70.4 153.6 153.6 153.6 153.6-70.4 153.6-153.6zM761.6-67.2c-83.2 0-153.6 70.4-153.6 153.6s70.4 153.6 153.6 153.6 153.6-70.4 153.6-153.6-70.4-153.6-153.6-153.6z"  horiz-adv-x="1024" />

    
    <glyph glyph-name="biaozhu" unicode="&#58967;" d="M854.857 487.598c0 192.768-153.49 348.974-342.83 348.974-189.422 0-342.885-156.205-342.885-348.974 0-76.718 24.604-147.428 65.856-205.028h-0.384l277.413-378.569 271.351 370.231h-0.494c44.955 59.026 71.973 132.919 71.973 213.367zM512.027 651.593c88.951 0 161.061-73.399 161.061-163.941 0-90.515-72.192-163.995-161.061-163.995-88.951 0-161.061 73.399-161.061 163.941 0 90.515 72.11 163.995 161.061 163.995z"  horiz-adv-x="1024" />

    
    <glyph glyph-name="wodezhuangbei" unicode="&#58988;" d="M510.4 519.888v-415.936l331.137 62.849v202.688c0 8.512 7.424 15.104 15.808 14.144l40.768-6.336c7.168-0.832 12.608-6.912 12.608-14.080v-235.456c0-6.72-4.672-12.48-11.2-13.888l-362.56-77.951c-17.537-3.776-35.648-3.776-53.121-0.129l-358.592 75.456c-6.529 1.344-11.2 6.912-11.328 13.504l-6.208 239.104c-0.192 7.488 5.503 13.824 12.927 14.528l304.64 26.751c5.247 0.448 9.855 3.84 11.84 8.768l45.888 111.424c5.952 14.336 27.392 10.113 27.392-5.44v0zM104.256 656.080l-95.552-204.288c-4.672-9.984 3.328-21.248 14.272-20.16l358.976 36.288c5.056 0.512 9.472 3.648 11.52 8.319l115.52 260.225 122.241-268.352c2.112-4.672 6.656-7.872 11.776-8.256l358.273-28.801c8.577-0.704 15.231 6.144 15.36 13.953v0.192c0 1.921-0.383 3.904-1.28 5.888l-93.44 204.864c-1.921 4.225-5.824 7.232-10.432 8.063l-402.496 72.448-394.432-72.448c-4.544-0.832-8.321-3.776-10.304-7.936z"  horiz-adv-x="1024" />

    
    <glyph glyph-name="wenjiandakai" unicode="&#58930;" d="M877.906 416.512l-450.544 0c-64.875 0-145.313-36.844-187.35-86.662l-177.506-208.631c0.019 4.144-0.506 8.813-0.506 12.975l0 498.225c0 63.825 52.425 116.25 116.25 116.25l166.069 0c63.825 0 116.25-52.425 116.25-116.25l0-16.613 301.087 0c63.825 0 116.25-52.425 116.25-116.25l0-83.044zM948.856 286.762l-154.594-200.212c-62.231-73.988-171.188-68.625-216.844-68.625l-432.375 0c-18.694 0-45.15 5.7-45.15 29.063 0 12.45 7.781 24.919 16.088 34.256l174.375 205.519c30.094 35.288 91.331 63.319 137.006 63.319l492.413 0c18.694 0 42.206-5.7 42.206-29.063 0.019-11.025-4.875-20.456-13.125-34.256l0 0zM948.856 286.762z"  horiz-adv-x="1024" />

    
    <glyph glyph-name="xiuding" unicode="&#59036;" d="M933.364612 738.195542l-58.874469 58.752489c-16.253642 16.226068-42.607741 16.226068-58.861383 0l-88.291607-88.114947 117.735852-117.490958 88.291607 88.1285C949.631807 695.669588 949.631807 721.969007 933.364612 738.195542zM819.52182 41.171445 178.310088 41.171445 178.310088 682.383177l464.981838 0 83.636293 83.636293L136.492175 766.01947c-23.100847 0-41.81838-18.731086-41.81838-41.81838l0-724.847558c0-23.114868 18.717533-41.81838 41.81838-41.81838l724.847558 0c23.100847 0 41.81838 18.70398 41.81838 41.81838L903.158113 587.407939l-83.63676-83.636293L819.521353 41.171445zM815.62876 561.952094l-117.722766 117.490958-353.187459-352.486428 117.729309-117.504512L815.62876 561.952094zM275.858578 140.98006l156.926767 39.095107-117.742862 117.532085L275.858578 140.98006z"  horiz-adv-x="1024" />

    
    <glyph glyph-name="shengyin" unicode="&#58898;" d="M784 524.8c-16 25.6-35.2 44.8-44.8 54.4-9.6 9.6-28.8 9.6-38.4-3.2-9.6-9.6-9.6-28.8 3.2-38.4 3.2-3.2 6.4-6.4 9.6-9.6 9.6-9.6 19.2-22.4 25.6-35.2 57.6-86.4 57.6-179.2-38.4-278.4-9.6-9.6-9.6-28.8 0-38.4 9.6-9.6 28.8-9.6 38.4 0C851.2 297.6 851.2 419.2 784 524.8zM896 649.6c-16 25.6-35.2 48-54.4 70.4-9.6 12.8-19.2 19.2-25.6 25.6-9.6 9.6-28.8 9.6-38.4-3.2-9.6-9.6-9.6-28.8 3.2-38.4 3.2-3.2 12.8-9.6 22.4-22.4 16-19.2 32-38.4 48-64 105.6-160 105.6-336-70.4-518.4-9.6-9.6-9.6-28.8 0-38.4 9.6-9.6 28.8-9.6 38.4 0C1014.4 265.6 1014.4 470.4 896 649.6zM483.2 809.6l-217.6-185.6-108.8 0c-57.6 0-108.8-48-108.8-108.8l0-272c0-60.8 48-108.8 108.8-108.8l96 0 230.4-182.4c54.4-41.6 105.6-16 105.6 51.2l0 755.2C588.8 828.8 534.4 854.4 483.2 809.6zM534.4 6.4c0-22.4-3.2-22.4-19.2-9.6l-236.8 185.6c-3.2 3.2-9.6 6.4-16 6.4l-105.6 0c-28.8 0-54.4 25.6-54.4 54.4l0 272c0 28.8 25.6 54.4 54.4 54.4l118.4 0c6.4 0 12.8 3.2 16 6.4l224 192c16 12.8 16 12.8 16-6.4L531.2 6.4z"  horiz-adv-x="1024" />

    
    <glyph glyph-name="sousuo" unicode="&#58899;" d="M966.4-28.8l-230.4 227.2c60.8 67.2 96 156.8 96 256 0 217.6-176 390.4-390.4 390.4-217.6 0-390.4-176-390.4-390.4 0-217.6 176-390.4 390.4-390.4 99.2 0 188.8 35.2 256 96l230.4-227.2c9.6-9.6 28.8-9.6 38.4 0C979.2-54.4 979.2-38.4 966.4-28.8zM102.4 454.4c0 185.6 150.4 339.2 339.2 339.2s339.2-150.4 339.2-339.2c0-89.6-35.2-172.8-92.8-233.6-3.2 0-3.2-3.2-6.4-3.2-3.2-3.2-3.2-3.2-3.2-6.4-60.8-57.6-144-92.8-233.6-92.8C256 115.2 102.4 268.8 102.4 454.4z"  horiz-adv-x="1024" />

    
    <glyph glyph-name="choice" unicode="&#59548;" d="M833.428 41.893l-285.686 396.772 250.564 120.792-607.735 253.115 58.114-671.635 185.486 211.242 285.729-396.75 113.528 86.464z"  horiz-adv-x="1024" />

    
    <glyph glyph-name="case" unicode="&#59550;" d="M258.8290749 69.48632831999998l506.3418502 0L765.1709251 635.63609848l-63.28015045 0c0-34.74747017-28.35655227-62.90273433-63.30531158-62.90273434L385.38937682 572.73336414c-34.97392046 0-63.28015045 28.15526416-63.28015045 62.90273434l-63.28015044 0L258.8290749 69.48632831999998 258.8290749 69.48632831999998zM462.81006169 395.67474758l49.2402606 122.78613772 49.21509944-122.78613772 147.67045951 0-98.45536005-98.20374862 24.63271035-147.36852579-123.06290925 73.69684399-123.0880704-73.69684399 24.6075492 147.36852579-98.45536005 98.20374862L462.81006169 395.67474758 462.81006169 395.67474758zM891.78154828 824.31914035l-126.61062318 0 0-125.80546867 63.30531159 0L828.47623669 6.583593990000054 195.49860217 6.583593990000054 195.49860217 698.51367168l63.33047273 0 0 125.80546867L132.21845172 824.31914035C97.29485355 824.31914035 68.93830128 796.16387619 68.93830128 761.41640601l0-817.73554532c0-34.74747017 28.35655227-62.90273433 63.30531158-62.90273434l759.56309656 0c34.94875931 0 63.30531159 28.15526416 63.30531159 62.90273434L955.11202101 761.41640601C955.06169872 796.16387619 926.70514645 824.31914035 891.78154828 824.31914035L891.78154828 824.31914035zM385.38937682 635.61093734l253.19608625 0c34.94875931 0 63.28015045 28.15526416 63.28015044 62.90273434L701.86561351 824.34430149l-126.56030089 0L575.30531159 887.22187468l-126.61062318 0 0-62.90273433-126.58546204 0L322.10922535 698.51367168C322.10922535 663.79136162 350.44061751 635.61093734 385.38937682 635.61093734L385.38937682 635.61093734zM448.69468841 761.44156716l126.61062318 0 0-62.90273434-126.61062318 0L448.69468841 761.44156716z"  horiz-adv-x="1024" />

    
    <glyph glyph-name="xiangshangjiantou" unicode="&#58900;" d="M966.4 227.2l-435.2 432c-9.6 9.6-25.6 9.6-35.2 0l-441.6-432c-9.6-9.6-9.6-25.6 0-35.2 9.6-9.6 25.6-9.6 35.2 0l425.6 416 416-416c9.6-9.6 25.6-9.6 35.2 0S976 217.6 966.4 227.2z"  horiz-adv-x="1024" />

    
    <glyph glyph-name="xiangxiajiantou" unicode="&#58901;" d="M966.4 572.8c-9.6 9.6-25.6 9.6-35.2 0l-416-416-425.6 416c-9.6 9.6-25.6 9.6-35.2 0-9.6-9.6-9.6-25.6 0-35.2l441.6-432c9.6-9.6 25.6-9.6 35.2 0l435.2 432C976 550.4 976 563.2 966.4 572.8z"  horiz-adv-x="1024" />

    
    <glyph glyph-name="xiangyoujiantou" unicode="&#59051;" d="M761.6 406.4l-432 435.2c-9.6 9.6-25.6 9.6-35.2 0-9.6-9.6-9.6-25.6 0-35.2l416-416-416-425.6c-9.6-9.6-9.6-25.6 0-35.2s25.6-9.6 35.2 0l432 441.6C771.2 380.8 771.2 396.8 761.6 406.4z"  horiz-adv-x="1024" />

    
    <glyph glyph-name="xiangzuojiantou1" unicode="&#59053;" d="M729.6-35.2l-416 425.6 416 416c9.6 9.6 9.6 25.6 0 35.2-9.6 9.6-25.6 9.6-35.2 0l-432-435.2c-9.6-9.6-9.6-25.6 0-35.2l432-441.6c9.6-9.6 25.6-9.6 35.2 0C739.2-60.8 739.2-44.8 729.6-35.2z"  horiz-adv-x="1024" />

    
    </font>
</defs>
</svg>
